<?xml version="1.0" encoding="UTF-8"?>
<svg version="1.1" xmlns="http://www.w3.org/2000/svg" width="1366" height="768">
<path d="M0 0 C0.99 0.33 1.98 0.66 3 1 C3 1.66 3 2.32 3 3 C3.928125 3.268125 4.85625 3.53625 5.8125 3.8125 C8.82445764 4.93460187 9.96347496 5.6579962 12 8 C12.66 8.33 13.32 8.66 14 9 C14 9.66 14 10.32 14 11 C14.70125 11.2475 15.4025 11.495 16.125 11.75 C24.11111111 15.22222222 24.11111111 15.22222222 26 19 C26.66 19 27.32 19 28 19 C28 19.66 28 20.32 28 21 C28.94875 21.2475 29.8975 21.495 30.875 21.75 C34 23 34 23 35.375 25.125 C35.58125 25.74375 35.7875 26.3625 36 27 C37.32 27 38.64 27 40 27 C40 27.66 40 28.32 40 29 C40.61875 29.12375 41.2375 29.2475 41.875 29.375 C44 30 44 30 46 32 C48.76419385 33.73749327 51.59309524 35.33429004 54.4375 36.9375 C56.7586664 38.25165278 58.909931 39.61875308 61.125 41.125 C63.71728253 42.81561904 66.09310281 43.97403629 69 45 C69 45.66 69 46.32 69 47 C69.56847656 47.12503906 70.13695313 47.25007813 70.72265625 47.37890625 C73.10150569 48.02768337 75.1981222 48.90901626 77.4375 49.9375 C83.0100644 52.80009147 83.0100644 52.80009147 89 54 C88.505 52.02 88.505 52.02 88 50 C87.34 50 86.68 50 86 50 C83 45.61538462 83 45.61538462 83 43 C82.34 42.67 81.68 42.34 81 42 C79.52924286 40.27785608 78.09733464 38.52236355 76.6875 36.75 C74.31265093 33.76631866 71.96964432 30.96994701 69.2578125 28.28515625 C67.05612953 26.0568093 66.33885131 25.04966176 66 22 C69.00811079 23.42885262 71.73811856 25.07890512 74.5 26.9375 C75.2528125 27.44152344 76.005625 27.94554687 76.78125 28.46484375 C82.82234186 32.64468371 82.82234186 32.64468371 84 35 C84.804375 35.144375 85.60875 35.28875 86.4375 35.4375 C89 36 89 36 91 39 C93.55183404 40.20450304 93.55183404 40.20450304 96 41 C96 41.66 96 42.32 96 43 C96.928125 43.309375 97.85625 43.61875 98.8125 43.9375 C100.875 44.625 102.9375 45.3125 105 46 C105 46.66 105 47.32 105 48 C105.99 48 106.98 48 108 48 C108 48.66 108 49.32 108 50 C108.721875 50.103125 109.44375 50.20625 110.1875 50.3125 C113.25958758 51.06345474 115.36003721 52.2875917 118 54 C118.66 54.33 119.32 54.66 120 55 C120 55.66 120 56.32 120 57 C121.4540625 57.185625 121.4540625 57.185625 122.9375 57.375 C123.948125 57.58125 124.95875 57.7875 126 58 C126.33 58.66 126.66 59.32 127 60 C128.57163659 60.89317052 130.18296177 61.71743991 131.8125 62.5 C132.68519531 62.9228125 133.55789062 63.345625 134.45703125 63.78125 C135.29621094 64.1834375 136.13539063 64.585625 137 65 C139.5160482 66.21432674 141.65682967 67.43788644 144 69 C144 69.66 144 70.32 144 71 C145.11375 71.185625 145.11375 71.185625 146.25 71.375 C148.80141485 71.95486701 150.7267573 72.73708739 153 74 C153 74.66 153 75.32 153 76 C153.969375 76.28875 154.93875 76.5775 155.9375 76.875 C159 78 159 78 160 80 C162.02463255 80.65213292 162.02463255 80.65213292 164 81 C164 81.66 164 82.32 164 83 C166.64877696 84.41898766 169.08014819 85.31911019 172 86 C165.19821253 77.30552126 165.19821253 77.30552126 157 70 C157.33 69.34 157.66 68.68 158 68 C160.78073473 68.65465728 163.44317042 69.45348268 166.125 70.4375 C166.80820313 70.68371094 167.49140625 70.92992187 168.1953125 71.18359375 C170 72 170 72 172 74 C173.64991582 74.70710678 175.31562256 75.37943989 177 76 C177 76.66 177 77.32 177 78 C177.99 78.226875 178.98 78.45375 180 78.6875 C184.5427674 79.98543354 188.09280909 82.41490205 192 85 C194.17409775 86.30074224 196.34958931 87.59869984 198.53125 88.88671875 C199.0159375 89.25410156 199.500625 89.62148438 200 90 C200 90.66 200 91.32 200 92 C201.32 92 202.64 92 204 92 C205.75 93.375 205.75 93.375 207 95 C207 95.66 207 96.32 207 97 C207.721875 97.2475 208.44375 97.495 209.1875 97.75 C212.28571093 99.12698264 214.42164314 100.80839667 217 103 C218.3921875 104.051875 218.3921875 104.051875 219.8125 105.125 C220.534375 105.74375 221.25625 106.3625 222 107 C222 107.66 222 108.32 222 109 C222.598125 109.28875 223.19625 109.5775 223.8125 109.875 C226 111 226 111 229 113 C229 113.66 229 114.32 229 115 C229.99 115.33 230.98 115.66 232 116 C237 121.46511628 237 121.46511628 237 124 C238.32 124.66 239.64 125.32 241 126 C241 126.99 241 127.98 241 129 C241.66 129 242.32 129 243 129 C243.33 130.32 243.66 131.64 244 133 C244.66 133 245.32 133 246 133 C246.33 133.99 246.66 134.98 247 136 C247.67482422 136.64388672 247.67482422 136.64388672 248.36328125 137.30078125 C250.62473199 139.6485881 251.77154194 142.26118667 253.1875 145.1875 C253.71730469 146.27417969 254.24710938 147.36085938 254.79296875 148.48046875 C255.19128906 149.31191406 255.58960938 150.14335937 256 151 C256.99 151 257.98 151 259 151 C260.40568804 149.05017465 261.7295036 147.04049422 263 145 C269.42968169 136.16266694 279.27030621 131.53943411 289.78515625 129.4453125 C305.91490157 127.21105859 320.67662255 129.9153292 334.1875 139.1875 C345.7321704 150.7321704 349.89342465 164.89777644 350.03515625 180.9921875 C349.65548418 194.61292304 346.37178785 207.96319482 336.96484375 218.21875 C324.78223646 229.73528881 311.54252155 231.61059033 295.44140625 231.30859375 C283.38620305 230.8089714 273.63701485 226.48385297 264.96875 218.015625 C261.29144344 213.99551868 258.51266892 209.82432433 256 205 C253.34649157 208.20251017 251.12263522 211.43011349 249 215 C248.34 215.66 247.68 216.32 247 217 C246.67 217.66 246.34 218.32 246 219 C245.34 219 244.68 219 244 219 C244 219.66 244 220.32 244 221 C242.625 222.625 242.625 222.625 241 224 C240.34 224 239.68 224 239 224 C239 224.66 239 225.32 239 226 C238.01 226 237.02 226 236 226 C236 226.66 236 227.32 236 228 C234.68 228.33 233.36 228.66 232 229 C232 229.66 232 230.32 232 231 C231.030625 231.28875 230.06125 231.5775 229.0625 231.875 C225.89335797 232.64214682 225.89335797 232.64214682 225 235 C215.0704829 239.61335096 205.26524693 241.16213961 194.4375 241.25 C193.64601562 241.2593457 192.85453125 241.26869141 192.0390625 241.27832031 C186.45505718 241.2482241 181.39953266 240.37307925 176 239 C175.30165039 238.84571533 174.60330078 238.69143066 173.88378906 238.5324707 C169.54001995 237.54687953 165.94817193 236.01795454 162 234 C161.113125 233.835 160.22625 233.67 159.3125 233.5 C157 233 157 233 155.61328125 231.5625 C153.29854345 229.32062319 150.77106559 228.77571249 147.7421875 227.84375 C147.16726562 227.5653125 146.59234375 227.286875 146 227 C145.67 226.01 145.34 225.02 145 224 C143.7934375 223.814375 143.7934375 223.814375 142.5625 223.625 C141.716875 223.41875 140.87125 223.2125 140 223 C139.67 222.34 139.34 221.68 139 221 C138.01 220.67 137.02 220.34 136 220 C136 219.34 136 218.68 136 218 C135.401875 217.71125 134.80375 217.4225 134.1875 217.125 C132 216 132 216 129 214 C129 213.34 129 212.68 129 212 C128.1028125 211.8453125 128.1028125 211.8453125 127.1875 211.6875 C124.68741714 210.90175967 123.62464918 210.03081147 122 208 C122 207.34 122 206.68 122 206 C121.34 206 120.68 206 120 206 C118.375 204.625 118.375 204.625 117 203 C117 202.34 117 201.68 117 201 C116.13375 200.62875 116.13375 200.62875 115.25 200.25 C112.67060021 198.81700012 110.93878408 197.21575324 109 195 C109 194.34 109 193.68 109 193 C108.34 193 107.68 193 107 193 C107 192.34 107 191.68 107 191 C106.34 191 105.68 191 105 191 C105 190.34 105 189.68 105 189 C104.34 189 103.68 189 103 189 C103 188.01 103 187.02 103 186 C102.34 186 101.68 186 101 186 C100.01 183.525 100.01 183.525 99 181 C98.34 181 97.68 181 97 181 C93 176.52941176 93 176.52941176 93 174 C92.0409375 173.6596875 92.0409375 173.6596875 91.0625 173.3125 C89 172 89 172 88.25 169.375 C88.1675 168.59125 88.085 167.8075 88 167 C87.34 167 86.68 167 86 167 C86 166.34 86 165.68 86 165 C85.34 165 84.68 165 84 165 C83.67 163.68 83.34 162.36 83 161 C82.34 161 81.68 161 81 161 C76.57142857 153.57142857 76.57142857 153.57142857 76 150 C78.91517292 151.07401108 80.77810176 151.77810176 83 154 C84.485 154.99 84.485 154.99 86 156 C86 156.66 86 157.32 86 158 C87.5778125 158.433125 87.5778125 158.433125 89.1875 158.875 C92.23009919 159.77281615 95.06329052 160.82531621 98 162 C98.66 162 99.32 162 100 162 C99.20882096 160.00016466 99.20882096 160.00016466 98 158 C97.01 157.67 96.02 157.34 95 157 C95 156.01 95 155.02 95 154 C94.39414063 153.90589844 93.78828125 153.81179688 93.1640625 153.71484375 C90.4973788 152.8339717 89.87656559 151.89234854 88.375 149.5625 C86.99029651 147.4501657 85.79992193 145.79992193 84 144 C83.30251417 142.68252676 82.63040043 141.35085807 82 140 C81.34 140 80.68 140 80 140 C80 139.34 80 138.68 80 138 C79.34 138 78.68 138 78 138 C78 137.01 78 136.02 78 135 C76.02 134.01 76.02 134.01 74 133 C74 132.01 74 131.02 74 130 C73.34 130 72.68 130 72 130 C72 129.34 72 128.68 72 128 C71.34 127.67 70.68 127.34 70 127 C68.375 125.625 68.375 125.625 67 124 C67 123.01 67 122.02 67 121 C66.401875 120.773125 65.80375 120.54625 65.1875 120.3125 C62.40651597 118.64390958 61.4358084 116.8716168 60 114 C60 113.34 60 112.68 60 112 C59.34 112 58.68 112 58 112 C57.67 111.01 57.34 110.02 57 109 C56.443125 108.46375 55.88625 107.9275 55.3125 107.375 C52.08988372 104.06528598 47 98.81865555 47 94 C46.38125 93.773125 45.7625 93.54625 45.125 93.3125 C42.37739861 91.61545208 42.06789821 89.97485929 41 87 C40.01 86.505 40.01 86.505 39 86 C35.9748599 82.86249755 33.33669185 79.51013917 30.9375 75.875 C28.90510386 72.85918637 26.6382263 70.49165817 24 68 C24.99 67.01 24.99 67.01 26 66 C30.875 69.625 30.875 69.625 32 73 C34.01508358 73.73323796 34.01508358 73.73323796 36 74 C36 74.66 36 75.32 36 76 C36.99 76 37.98 76 39 76 C39.99 76.99 39.99 76.99 41 78 C43.70505814 80.28889535 45.61817117 81.87272372 49 83 C49.33 83.66 49.66 84.32 50 85 C51.64363134 85.72159424 53.31050386 86.39351421 55 87 C55 87.66 55 88.32 55 89 C55.99 88.67 56.98 88.34 58 88 C57.71125 87.22914063 57.4225 86.45828125 57.125 85.6640625 C56.75375 84.66117187 56.3825 83.65828125 56 82.625 C55.62875 81.62726563 55.2575 80.62953125 54.875 79.6015625 C54 77 54 77 54 75 C53.34 75 52.68 75 52 75 C51.16180842 73.37750059 50.3295884 71.75191503 49.5 70.125 C49.0359375 69.22007812 48.571875 68.31515625 48.09375 67.3828125 C47 65 47 65 47 63 C46.34 63 45.68 63 45 63 C43.59765625 60.98828125 43.59765625 60.98828125 42.0625 58.3125 C41.55847656 57.44238281 41.05445313 56.57226562 40.53515625 55.67578125 C40.02855469 54.79277344 39.52195313 53.90976562 39 53 C38.44183594 52.10667969 37.88367187 51.21335937 37.30859375 50.29296875 C36 48 36 48 36 46 C35.34 46 34.68 46 34 46 C34 45.34 34 44.68 34 44 C33.01 43.505 33.01 43.505 32 43 C29 39.42307692 29 39.42307692 29 37 C28.34 37 27.68 37 27 37 C27 36.34 27 35.68 27 35 C26.34 35 25.68 35 25 35 C25 34.01 25 33.02 25 32 C24.34 32 23.68 32 23 32 C23 31.34 23 30.68 23 30 C22.01 29.67 21.02 29.34 20 29 C17.80585815 26.03145515 16.1694002 23.50820059 15 20 C12.98491642 19.26676204 12.98491642 19.26676204 11 19 C11 18.01 11 17.02 11 16 C10.01 15.67 9.02 15.34 8 15 C5.8125 13.125 5.8125 13.125 4 11 C4 10.01 4 9.02 4 8 C2.68 7.34 1.36 6.68 0 6 C0 4.02 0 2.04 0 0 Z M173 88 C174 90 174 90 174 90 Z M283.625 158.75 C277.21641511 167.27091176 278.15464668 179.91108431 279 190 C280.26659313 197.04642635 282.94891398 202.2683517 288.6640625 206.6875 C294.25421695 209.82845634 300.39383433 210.517401 306.6875 209.5625 C312.793258 207.81174502 317.03077787 204.12856699 320.38671875 198.796875 C324.94918813 188.61536439 324.77650158 174.17682318 321.4375 163.625 C318.93079241 157.96268533 315.17145281 154.51746666 309.640625 151.87109375 C299.8002669 148.62494012 290.15935919 150.77054214 283.625 158.75 Z " fill="#F393AB" transform="translate(0,215)"/>
<path d="M0 0 C4.19429279 3.31641755 6.59573594 6.95709687 8.97265625 11.7109375 C9.46765625 11.0303125 9.96265625 10.3496875 10.47265625 9.6484375 C16.82783632 2.18110092 23.15857395 -2.66046298 32.97265625 -4.2890625 C43.58325119 -5.088132 53.04230417 -4.18951197 61.84765625 2.2109375 C68.50970737 8.53668315 70.37224304 17.90816389 70.97265625 26.7109375 C71.10414875 32.0356111 71.0894864 37.35788432 71.0703125 42.68359375 C71.06844407 44.21772719 71.06702218 45.75186123 71.06602478 47.28599548 C71.06223301 51.29557993 71.0524318 55.30512732 71.0413208 59.31469727 C71.03103432 63.41747537 71.02651175 67.52025955 71.02148438 71.62304688 C71.01080607 79.65236253 70.99323688 87.68164112 70.97265625 95.7109375 C62.39265625 95.7109375 53.81265625 95.7109375 44.97265625 95.7109375 C44.95807373 93.65214355 44.94349121 91.59334961 44.9284668 89.47216797 C44.87805854 82.65874926 44.81145256 75.84555759 44.73694134 69.03236198 C44.69227392 64.90277953 44.65300998 60.77329489 44.6262207 56.64355469 C44.60015125 52.65575254 44.55972355 48.66832757 44.50946999 44.68075943 C44.49282579 43.16183297 44.48129628 41.6428413 44.47504234 40.12383652 C44.46537417 37.99084987 44.43728499 35.85882282 44.4050293 33.72607422 C44.39392624 32.5136203 44.38282318 31.30116638 44.37138367 30.05197144 C43.92833684 26.3395744 42.88886606 23.90273713 40.97265625 20.7109375 C36.65710507 17.55166269 31.06960658 18.20198009 25.97265625 18.7109375 C22.51919477 20.05840274 22.51919477 20.05840274 19.97265625 21.7109375 C19.31265625 21.7109375 18.65265625 21.7109375 17.97265625 21.7109375 C13.32030591 30.79764917 12.51146882 38.74932373 12.4609375 48.93359375 C12.44405933 50.28838189 12.42590496 51.64315467 12.40653992 52.99790955 C12.35937342 56.5339579 12.32935 60.06994396 12.30310059 63.60620117 C12.27312494 67.22652483 12.22665387 70.84663449 12.18164062 74.46679688 C12.09598802 81.54806739 12.03000327 88.62937286 11.97265625 95.7109375 C3.39265625 95.7109375 -5.18734375 95.7109375 -14.02734375 95.7109375 C-14.04192627 93.65214355 -14.05650879 91.59334961 -14.0715332 89.47216797 C-14.12194146 82.65874926 -14.18854744 75.84555759 -14.26305866 69.03236198 C-14.30772608 64.90277953 -14.34699002 60.77329489 -14.3737793 56.64355469 C-14.39984875 52.65575254 -14.44027645 48.66832757 -14.49053001 44.68075943 C-14.50717421 43.16183297 -14.51870372 41.6428413 -14.52495766 40.12383652 C-14.53462583 37.99084987 -14.56271501 35.85882282 -14.5949707 33.72607422 C-14.61162529 31.90739334 -14.61162529 31.90739334 -14.62861633 30.05197144 C-15.07166316 26.3395744 -16.11113394 23.90273713 -18.02734375 20.7109375 C-22.36306487 17.53689693 -27.90981248 18.24232635 -33.02734375 18.7109375 C-38.22294085 20.4428032 -40.9290392 23.23560871 -44.02734375 27.7109375 C-46.71119575 34.51578957 -46.37707206 41.50814443 -46.44140625 48.73828125 C-46.46014129 50.09592332 -46.47971641 51.45355404 -46.50009155 52.81117249 C-46.55117242 56.36367054 -46.59092577 59.91620625 -46.62823486 63.46887207 C-46.66842637 67.10238779 -46.71944917 70.73575015 -46.76953125 74.36914062 C-46.86600529 81.48296611 -46.94949765 88.59688021 -47.02734375 95.7109375 C-55.60734375 95.7109375 -64.18734375 95.7109375 -73.02734375 95.7109375 C-73.02734375 63.3709375 -73.02734375 31.0309375 -73.02734375 -2.2890625 C-64.77734375 -2.2890625 -56.52734375 -2.2890625 -48.02734375 -2.2890625 C-47.69734375 1.6709375 -47.36734375 5.6309375 -47.02734375 9.7109375 C-45.87234375 8.3084375 -44.71734375 6.9059375 -43.52734375 5.4609375 C-33.1294972 -6.2435411 -13.34639991 -8.48615023 0 0 Z " fill="#000000" transform="translate(444.02734375,348.2890625)"/>
<path d="M0 0 C5.23515162 3.54379494 8.48972573 7.14269337 11 13 C11.66 13.33 12.32 13.66 13 14 C13.37125 12.9171875 13.37125 12.9171875 13.75 11.8125 C16.57236924 5.4621692 20.93651966 2.06530187 27 -1 C36.25161621 -4.34972311 47.45703959 -4.37244001 56.75 -1.1015625 C63.87942234 2.38888386 68.25263951 7.67169728 71 15 C73.51307632 23.54682498 73.25522919 32.0284591 73.1953125 40.84765625 C73.19157618 42.47146937 73.18873214 44.09528476 73.18673706 45.71910095 C73.1791493 49.96546804 73.15954329 54.21169542 73.1373291 58.45800781 C73.11676528 62.80206412 73.10771294 67.14614329 73.09765625 71.49023438 C73.07629217 79.99356042 73.04115039 88.49674666 73 97 C64.42 97 55.84 97 47 97 C46.9906543 94.91091309 46.98130859 92.82182617 46.97167969 90.66943359 C46.93786654 83.75620168 46.88229366 76.84326692 46.81609726 69.93027306 C46.77663892 65.74012086 46.74444255 61.55017829 46.72900391 57.35986328 C46.71382622 53.3136324 46.67936172 49.26797788 46.63169098 45.22200394 C46.6168885 43.68075199 46.60895963 42.13941774 46.60811615 40.59809494 C46.60574114 38.43375425 46.57862307 36.27099958 46.54589844 34.10693359 C46.53701599 32.87671478 46.52813354 31.64649597 46.51898193 30.3789978 C45.89765143 26.33362693 44.58512386 24.14327644 42 21 C36.32852986 19.10950995 30.19202086 19.24275643 24.5625 21.1875 C18.38890981 25.55418574 16.5325863 30.83218241 15 38 C14.56246256 42.62880508 14.51225041 47.23543909 14.48828125 51.8828125 C14.46135445 53.82593826 14.46135445 53.82593826 14.43388367 55.80831909 C14.38679677 59.21776373 14.35672264 62.62714418 14.33044434 66.0368042 C14.30042761 69.52987257 14.25412726 73.02272477 14.20898438 76.515625 C14.12191143 83.34376413 14.06161467 90.17139467 14 97 C5.42 97 -3.16 97 -12 97 C-12.01458252 94.90567627 -12.02916504 92.81135254 -12.04418945 90.65356445 C-12.09456121 83.72838177 -12.1611608 76.80342334 -12.23571491 69.87846088 C-12.28041317 65.68046812 -12.31967037 61.48257227 -12.34643555 57.28442383 C-12.37247416 53.23179005 -12.41288017 49.17952935 -12.46318626 45.12712669 C-12.47985128 43.58225335 -12.49136785 42.03731548 -12.49761391 40.49236488 C-12.50725932 38.3256496 -12.53532169 36.15988795 -12.56762695 33.9934082 C-12.58428154 32.14474907 -12.58428154 32.14474907 -12.60127258 30.25874329 C-13.03318749 26.72876326 -13.89775257 24.83668223 -16 22 C-20.44056085 18.89910202 -25.82033328 19.51886985 -31 20 C-35.75661575 21.64319453 -38.36079029 23.72266013 -41 28 C-44.22073303 35.8469689 -44.46846391 43.49614478 -44.51171875 51.8828125 C-44.52966995 53.17822968 -44.54762115 54.47364685 -44.56611633 55.80831909 C-44.61320323 59.21776373 -44.64327736 62.62714418 -44.66955566 66.0368042 C-44.69957239 69.52987344 -44.74602888 73.02272216 -44.79101562 76.515625 C-44.87657717 83.3436381 -44.94260594 90.17169255 -45 97 C-53.25 97 -61.5 97 -70 97 C-70 64.66 -70 32.32 -70 -1 C-62.08 -1 -54.16 -1 -46 -1 C-46 3.29 -46 7.58 -46 12 C-45.34 12 -44.68 12 -44 12 C-43.814375 11.29875 -43.62875 10.5975 -43.4375 9.875 C-40.55860788 4.11721575 -35.78350017 1.06514461 -29.9375 -1.375 C-20.43589108 -4.49434688 -9.08939736 -4.47381083 0 0 Z " fill="#000000" transform="translate(876,347)"/>
<path d="M0 0 C8.58 0 17.16 0 26 0 C26.33 16.83 26.66 33.66 27 51 C29.475 48.03 29.475 48.03 32 45 C41.94974178 37.40378605 51.77273887 36.15911733 64 37 C72.1268507 38.14160212 77.61543592 41.87767357 83 48 C89.93426448 57.97905483 89.27522156 70.03305928 89.1953125 81.62890625 C89.19157605 83.2302991 89.18873207 84.83169425 89.18673706 86.43309021 C89.17915029 90.62027448 89.15954517 94.80731701 89.1373291 98.9944458 C89.11676311 103.27817875 89.10771249 107.5619349 89.09765625 111.84570312 C89.07629392 120.23054061 89.04115299 128.61523627 89 137 C80.75 137 72.5 137 64 137 C63.970271 134.25345093 63.970271 134.25345093 63.93994141 131.45141602 C63.87191584 125.37247068 63.7951224 119.29368443 63.71247292 113.214921 C63.66272406 109.53272259 63.61639397 105.85054992 63.578125 102.16821289 C63.54099936 98.60839375 63.4945694 95.04880204 63.44193649 91.48917961 C63.41463837 89.48371249 63.39674717 87.47812434 63.37905884 85.47254944 C63.49737974 73.46030498 63.49737974 73.46030498 58.5 63 C53.42964297 58.94371438 48.29891118 59.43167719 42 60 C36.68902338 61.57109276 32.87663794 64.20560343 30 69 C26.60661721 76.4318623 26.52965635 83.72953251 26.48828125 91.78515625 C26.47033005 93.08198837 26.45237885 94.3788205 26.43388367 95.71495056 C26.38673532 99.13262977 26.35670038 102.55024463 26.33044434 105.96813965 C26.30045931 109.46782043 26.2541485 112.96728449 26.20898438 116.46679688 C26.12183309 123.31121263 26.06158909 130.15511618 26 137 C17.42 137 8.84 137 0 137 C0 91.79 0 46.58 0 0 Z " fill="#000000" transform="translate(1153,307)"/>
<path d="M0 0 C7.39751686 6.45118865 11.40959978 15.56574425 12.50390625 25.18359375 C12.85214365 32.46055458 13.10671174 39.91613426 12.50390625 47.18359375 C11.50390625 48.18359375 11.50390625 48.18359375 8.95396423 48.30384827 C7.25186546 48.30051735 7.25186546 48.30051735 5.51538086 48.29711914 C4.23412827 48.29704361 2.95287567 48.29696808 1.63279724 48.29689026 C0.22394777 48.29178284 -1.18490131 48.28656684 -2.59375 48.28125 C-4.02721609 48.27938577 -5.46068282 48.27796189 -6.89414978 48.27696228 C-10.67369332 48.27313747 -14.45319865 48.26330752 -18.23272705 48.2522583 C-22.08678673 48.24204338 -25.94085257 48.23746449 -29.79492188 48.23242188 C-37.36199662 48.22168521 -44.92903984 48.20460924 -52.49609375 48.18359375 C-51.88447404 50.2767592 -51.26434715 52.36744015 -50.640625 54.45703125 C-50.12399292 56.2037915 -50.12399292 56.2037915 -49.59692383 57.98583984 C-47.70330284 63.48653794 -45.40886021 66.11685861 -40.24609375 68.99609375 C-31.17467909 71.86870839 -22.71120114 71.88772351 -14.12109375 67.43359375 C-11.1396952 64.87810928 -9.48355684 62.54699282 -7.49609375 59.18359375 C-2.53884143 59.70491092 0.78598618 62.03562587 4.81640625 64.74609375 C5.78416992 65.38321289 5.78416992 65.38321289 6.77148438 66.03320312 C8.35364579 67.07625768 9.92943126 68.12897247 11.50390625 69.18359375 C10.49516258 75.73476052 7.19110645 79.92706337 2.1640625 84.1484375 C-11.25553858 93.92882473 -26.48623618 95.0179553 -42.66650391 92.89941406 C-53.54925215 90.75562473 -63.5969705 84.68834847 -70 75.62890625 C-79.10300656 60.75036289 -80.83728265 43.14535969 -77.30859375 26.18359375 C-74.16402025 14.63416942 -68.4832527 4.55359721 -58.1171875 -1.9296875 C-40.14998664 -11.66814037 -17.04184082 -12.40133957 0 0 Z M-47.49609375 19.18359375 C-50.04192702 23.36009147 -51.49609375 26.21598526 -51.49609375 31.18359375 C-38.29609375 31.18359375 -25.09609375 31.18359375 -11.49609375 31.18359375 C-13.01444441 21.06103518 -13.01444441 21.06103518 -19.18359375 13.93359375 C-29.01904442 8.22268691 -40.29022789 10.41970284 -47.49609375 19.18359375 Z " fill="#000000" transform="translate(613.49609375,352.81640625)"/>
<path d="M0 0 C11.5446704 11.5446704 15.70592465 25.71027644 15.84765625 41.8046875 C15.46798418 55.42542304 12.18428785 68.77569482 2.77734375 79.03125 C-9.40526354 90.54778881 -22.64497845 92.42309033 -38.74609375 92.12109375 C-51.76751931 91.58142676 -62.18723552 86.44599496 -71.0625 76.875 C-81.86138482 63.59186468 -82.70678074 46.26049443 -81.1875 29.8125 C-79.23463494 16.91799646 -73.98063628 5.87131307 -63.375 -2.125 C-43.92174834 -14.62423874 -18.69973322 -12.83315025 0 0 Z M-50.5625 19.5625 C-56.97108489 28.08341176 -56.03285332 40.72358431 -55.1875 50.8125 C-53.92090687 57.85892635 -51.23858602 63.0808517 -45.5234375 67.5 C-39.93328305 70.64095634 -33.79366567 71.329901 -27.5 70.375 C-21.394242 68.62424502 -17.15672213 64.94106699 -13.80078125 59.609375 C-9.23831187 49.42786439 -9.41099842 34.98932318 -12.75 24.4375 C-15.25670759 18.77518533 -19.01604719 15.32996666 -24.546875 12.68359375 C-34.3872331 9.43744012 -44.02814081 11.58304214 -50.5625 19.5625 Z " fill="#000000" transform="translate(334.1875,354.1875)"/>
<path d="M0 0 C5.62205999 5.11515294 8.52774942 11.86756809 9.11317444 19.39503479 C9.21620272 22.57801145 9.2611656 25.7568517 9.28515625 28.94140625 C9.30215073 30.10314865 9.3191452 31.26489105 9.33665466 32.46183777 C9.38960331 36.15679562 9.43002099 39.8517429 9.46875 43.546875 C9.5126687 47.25980502 9.55930996 50.97264818 9.61155701 54.68547058 C9.64353649 56.99246164 9.67041954 59.29952993 9.69178772 61.60664368 C9.70527756 62.64499863 9.7187674 63.68335358 9.73266602 64.75317383 C9.74217789 65.66915848 9.75168976 66.58514313 9.76148987 67.52888489 C9.76591742 69.77677032 9.76591742 69.77677032 10.90625 71.734375 C14.20043194 72.95444238 17.42990235 72.8133829 20.90625 72.734375 C21.65132544 79.10743098 22.00974817 85.31748825 21.90625 91.734375 C14.39587958 94.63900208 4.44892088 95.52592594 -3.21875 92.546875 C-8.16456592 89.42886061 -11.3150628 85.85300932 -14.09375 80.734375 C-14.63902344 81.53101563 -14.63902344 81.53101563 -15.1953125 82.34375 C-19.81146313 88.83003345 -24.29073071 92.59308133 -32.09375 94.734375 C-43.74001538 96.02746132 -54.4377137 95.29749719 -63.96875 87.984375 C-69.31608523 83.01538897 -71.8663482 76.53023588 -72.296875 69.34375 C-72.40068771 60.7965038 -71.99963418 54.61626043 -67.53125 47.109375 C-58.92627009 38.7250356 -47.82471478 36.12723328 -36.40625 33.7421875 C-35.60767578 33.57348145 -34.80910156 33.40477539 -33.98632812 33.23095703 C-32.4305705 32.90805795 -30.87198794 32.59838861 -29.31054688 32.30419922 C-24.51319768 31.32779504 -20.85531734 30.05964769 -17.09375 26.734375 C-16.37413491 24.15993828 -16.37413491 24.15993828 -16.71875 21.484375 C-16.77289062 20.59234375 -16.82703125 19.7003125 -16.8828125 18.78125 C-16.98722656 17.76804687 -16.98722656 17.76804687 -17.09375 16.734375 C-26.21137516 13.32719071 -35.44203669 13.68571468 -44.453125 17.30859375 C-48.38745752 19.43290051 -51.61762425 22.20850673 -54.90234375 25.22265625 C-57.09375 26.734375 -57.09375 26.734375 -59.07885742 26.51757812 C-62.53673794 25.17347529 -64.06352379 21.94050569 -65.96875 18.921875 C-66.39671875 18.29216797 -66.8246875 17.66246094 -67.265625 17.01367188 C-68.4609375 15.15234375 -68.4609375 15.15234375 -70.09375 11.734375 C-68.74295995 6.28431238 -62.96898943 2.86664676 -58.421875 0.12109375 C-41.30585659 -9.00292135 -16.58186769 -12.13600462 0 0 Z M-20.90625 46.546875 C-25.04035903 48.08101702 -29.10664981 49.26159046 -33.40625 50.234375 C-38.87663708 51.54698409 -42.95813212 52.91924234 -46.46875 57.546875 C-47.739202 61.99345698 -47.47272786 65.63955008 -45.96875 69.984375 C-43.61421813 73.43768841 -42.05795954 74.41297182 -38.09375 75.734375 C-32.52275338 76.57002449 -27.81624528 75.90158293 -22.88671875 73.13671875 C-18.23987641 69.50226036 -15.89122646 64.48285117 -15.09375 58.734375 C-15.02673494 56.29770735 -15.00846979 53.85935758 -15.03125 51.421875 C-15.04027344 50.16761719 -15.04929687 48.91335938 -15.05859375 47.62109375 C-15.07019531 46.66847656 -15.08179688 45.71585937 -15.09375 44.734375 C-17.08575656 44.734375 -19.07762484 45.84838728 -20.90625 46.546875 Z " fill="#000000" transform="translate(1040.09375,351.265625)"/>
<path d="M0 0 C1.98115819 1.58120607 3.37973693 3.01387107 5 5 C5 9.25829182 2.55933218 11.1560235 -0.1875 14.125 C-0.67025391 14.67542969 -1.15300781 15.22585938 -1.65039062 15.79296875 C-3.85172725 18.19818756 -5.61944419 19.85770522 -8.6953125 21.0078125 C-11.84697897 20.99712888 -12.97815186 19.40632985 -15.203125 17.34765625 C-20.35926378 13.48055216 -27.73670811 12.30407868 -34 13 C-36.83687022 13.79595639 -39.29035403 14.78533112 -42 16 C-43.81896973 19.63793946 -43.25254202 23.24237393 -42 27 C-40.02845317 27.9535489 -40.02845317 27.9535489 -37.58984375 28.54296875 C-36.68347168 28.79095215 -35.77709961 29.03893555 -34.84326172 29.29443359 C-31.31148652 30.17085729 -27.7686534 30.97107176 -24.21118164 31.73583984 C-12.32033003 34.32466752 -1.01637058 37.2212278 6 48 C9.79746907 55.41410628 9.94496829 64.06106279 7.875 72 C4.91397527 80.93790797 -0.68451658 86.72232343 -9 91 C-20.87761348 96.46452704 -39.08640022 95.84940411 -51.3984375 92.03515625 C-60.10164678 88.57216757 -66.37276629 84.56699686 -72 77 C-70.52778565 71.97769914 -67.5510349 69.19721778 -63.875 65.6875 C-63.31167969 65.13771484 -62.74835938 64.58792969 -62.16796875 64.02148438 C-60.78537942 62.67404562 -59.39359084 61.33605727 -58 60 C-55.14370404 61.30113265 -53.07789787 62.71588005 -50.8125 64.875 C-44.99868896 69.95587332 -37.81183501 73.16367654 -30 73 C-25.41580753 72.37930183 -21.87542303 71.58361535 -18 69 C-16.9048346 65.66974518 -16.9048346 65.66974518 -17 62 C-19.76599137 57.52672575 -22.17188951 56.21014792 -27.19921875 54.9375 C-28.40900391 54.61523438 -29.61878906 54.29296875 -30.86523438 53.9609375 C-32.12658203 53.64382813 -33.38792969 53.32671875 -34.6875 53 C-47.2745657 49.7862811 -58.64624218 46.55590514 -66 35 C-68.85334051 27.66733449 -69.40145035 19.15649192 -66.8125 11.625 C-66.24997253 10.396729 -65.64580511 9.18660126 -65 8 C-64.52433594 7.09507812 -64.52433594 7.09507812 -64.0390625 6.171875 C-59.66713446 -0.95963883 -52.25923558 -4.57575355 -44.4375 -6.875 C-29.43032708 -10.11979414 -12.85757233 -8.9215808 0 0 Z " fill="#000000" transform="translate(1330,352)"/>
<path d="M0 0 C1.04285156 -0.020625 2.08570313 -0.04125 3.16015625 -0.0625 C14.50730019 -0.11916489 24.24093694 2.45850242 32.61328125 10.36328125 C36.65547173 14.63522323 38.76262473 17.25562239 39.375 23.25 C36.7825352 25.12097485 34.174351 26.96870837 31.5625 28.8125 C30.82451172 29.34552734 30.08652344 29.87855469 29.32617188 30.42773438 C28.25786133 31.17700195 28.25786133 31.17700195 27.16796875 31.94140625 C26.5133667 32.40748291 25.85876465 32.87355957 25.18432617 33.35375977 C23.375 34.25 23.375 34.25 20.375 33.25 C18.98046875 31.5078125 18.98046875 31.5078125 17.5625 29.375 C14.03112211 24.47663712 10.20531906 22.53223182 4.375 21.25 C-2.81551027 20.27074763 -8.8166649 21.84053095 -14.625 26.25 C-20.20297069 33.53837818 -20.85383609 40.42739276 -20.9375 49.3125 C-20.98100586 50.81200195 -20.98100586 50.81200195 -21.02539062 52.34179688 C-21.09567494 60.66237818 -19.55792084 67.62244002 -14.25 74.1875 C-7.82616839 79.23479626 -2.63340121 80.05881435 5.375 79.25 C11.14110407 78.15216544 14.53266178 75.69710208 18.12109375 71.1015625 C19.81541226 68.59967162 21.16155735 66.01395269 22.375 63.25 C27.00175657 64.6422459 31.02186231 66.54520984 35.25 68.875 C36.97863281 69.82246094 36.97863281 69.82246094 38.7421875 70.7890625 C39.61101562 71.27117187 40.47984375 71.75328125 41.375 72.25 C40.03298172 81.0199334 34.23503854 88.80275071 27.375 94.25 C24.80800826 95.9113099 22.2157329 97.12824807 19.375 98.25 C18.65957031 98.5490625 17.94414062 98.848125 17.20703125 99.15625 C4.43032122 103.77897926 -10.48351172 101.95188136 -22.75 96.625 C-34.64240735 90.1089518 -41.81107645 79.8604455 -45.86328125 67.2421875 C-49.57049496 52.67949158 -48.85135499 36.63802737 -42.046875 23.11328125 C-40.37475845 20.35278252 -38.60096843 17.80018148 -36.625 15.25 C-35.87476563 14.26773437 -35.87476563 14.26773437 -35.109375 13.265625 C-26.05542186 2.93131485 -13.02522027 0.06299986 0 0 Z " fill="#030202" transform="translate(199.625,344.75)"/>
<path d="M0 0 C0 7.59 0 15.18 0 23 C8.91 23 17.82 23 27 23 C27 29.6 27 36.2 27 43 C18.09 43 9.18 43 0 43 C0.05103235 50.1725965 0.11394606 57.34301634 0.20751953 64.51489258 C0.23573547 66.95427428 0.25694685 69.39374752 0.27099609 71.83325195 C0.2924161 75.34113448 0.33906435 78.84791571 0.390625 82.35546875 C0.39185364 83.44522507 0.39308228 84.53498138 0.39434814 85.65776062 C0.49201517 91.71717159 0.49201517 91.71717159 2.90600586 97.17700195 C6.33165335 100.15931626 9.57236284 100.29168556 14 100 C16.50067834 99.22342216 18.63358539 98.16000716 21 97 C22.32 97 23.64 97 25 97 C26.00577013 99.76886123 27.00480147 102.53984104 28 105.3125 C28.28617188 106.09818359 28.57234375 106.88386719 28.8671875 107.69335938 C29.27324219 108.8293457 29.27324219 108.8293457 29.6875 109.98828125 C29.93886719 110.68477783 30.19023438 111.38127441 30.44921875 112.09887695 C31 114 31 114 31 117 C29.41925436 117.81752303 27.83528777 118.62881997 26.25 119.4375 C25.36828125 119.88996094 24.4865625 120.34242188 23.578125 120.80859375 C14.55673334 124.9775702 1.00938447 124.48728962 -8.25 121.375 C-15.25084252 118.27075045 -19.86507028 114.2413463 -23.17578125 107.3203125 C-25.93633825 99.54888663 -26.26953981 92.60297262 -26.1953125 84.40625 C-26.1924826 83.21898315 -26.18965271 82.03171631 -26.18673706 80.80847168 C-26.17559598 77.03887599 -26.15050226 73.26952315 -26.125 69.5 C-26.11496237 66.93489928 -26.10583789 64.36979481 -26.09765625 61.8046875 C-26.07567647 55.53636562 -26.04118829 49.2682239 -26 43 C-30.95 43 -35.9 43 -41 43 C-41 36.4 -41 29.8 -41 23 C-36.05 23 -31.1 23 -26 23 C-26 16.73 -26 10.46 -26 4 C-21.22430521 2.8060763 -16.69105372 1.68409703 -11.875 0.875 C-10.90304687 0.70742188 -9.93109375 0.53984375 -8.9296875 0.3671875 C-6 0 -6 0 0 0 Z " fill="#000000" transform="translate(1107,323)"/>
<path d="M0 0 C0 7.59 0 15.18 0 23 C8.91 23 17.82 23 27 23 C27 29.6 27 36.2 27 43 C18.09 43 9.18 43 0 43 C0.05103235 50.1725965 0.11394606 57.34301634 0.20751953 64.51489258 C0.23573547 66.95427428 0.25694685 69.39374752 0.27099609 71.83325195 C0.2924161 75.34113448 0.33906435 78.84791571 0.390625 82.35546875 C0.39185364 83.44522507 0.39308228 84.53498138 0.39434814 85.65776062 C0.49201517 91.71717159 0.49201517 91.71717159 2.90600586 97.17700195 C6.33165335 100.15931626 9.57236284 100.29168556 14 100 C16.50067834 99.22342216 18.63358539 98.16000716 21 97 C22.32 97 23.64 97 25 97 C26.00577013 99.76886123 27.00480147 102.53984104 28 105.3125 C28.28617188 106.09818359 28.57234375 106.88386719 28.8671875 107.69335938 C29.27324219 108.8293457 29.27324219 108.8293457 29.6875 109.98828125 C29.93886719 110.68477783 30.19023438 111.38127441 30.44921875 112.09887695 C31 114 31 114 31 117 C29.41925436 117.81752303 27.83528777 118.62881997 26.25 119.4375 C25.36828125 119.88996094 24.4865625 120.34242188 23.578125 120.80859375 C14.55673334 124.9775702 1.00938447 124.48728962 -8.25 121.375 C-15.25084252 118.27075045 -19.86507028 114.2413463 -23.17578125 107.3203125 C-25.93633825 99.54888663 -26.26953981 92.60297262 -26.1953125 84.40625 C-26.1924826 83.21898315 -26.18965271 82.03171631 -26.18673706 80.80847168 C-26.17559598 77.03887599 -26.15050226 73.26952315 -26.125 69.5 C-26.11496237 66.93489928 -26.10583789 64.36979481 -26.09765625 61.8046875 C-26.07567647 55.53636562 -26.04118829 49.2682239 -26 43 C-30.95 43 -35.9 43 -41 43 C-41 36.4 -41 29.8 -41 23 C-36.05 23 -31.1 23 -26 23 C-26 16.73 -26 10.46 -26 4 C-21.22430521 2.8060763 -16.69105372 1.68409703 -11.875 0.875 C-10.90304687 0.70742188 -9.93109375 0.53984375 -8.9296875 0.3671875 C-6 0 -6 0 0 0 Z " fill="#000000" transform="translate(676,323)"/>
<path d="M0 0 C4.43945429 2.4618792 7.88974782 6.67402689 10.1484375 11.19140625 C14.68175951 9.55237448 18.11530276 7.18473126 21.96484375 4.3359375 C24.1484375 3.19140625 24.1484375 3.19140625 26.265625 3.31640625 C30.04617306 5.07334145 31.50303741 8.51119472 33.1484375 12.19140625 C37.41440912 25.85267252 38.00814413 39.92377619 32.1484375 53.19140625 C30.51171875 55.0546875 30.51171875 55.0546875 29.1484375 56.19140625 C29.4784375 54.21140625 29.8084375 52.23140625 30.1484375 50.19140625 C29.3853125 49.98515625 28.6221875 49.77890625 27.8359375 49.56640625 C23.4620776 47.93547544 19.58625201 45.74469377 15.5390625 43.43359375 C13.301666 42.03771332 13.301666 42.03771332 11.1484375 42.19140625 C10.375 43.98578125 10.375 43.98578125 9.5859375 45.81640625 C6.79366425 51.38121936 2.93458619 54.79833191 -2.6015625 57.56640625 C-9.83062579 58.95661073 -16.63232887 59.2628174 -23.13671875 55.4453125 C-28.92537913 51.21260183 -31.24326784 45.9320994 -32.8515625 39.19140625 C-33.27714454 35.34747256 -33.31699272 31.55593241 -33.2890625 27.69140625 C-33.30904297 26.71042969 -33.32902344 25.72945313 -33.34960938 24.71875 C-33.34429802 16.74109096 -31.61717583 10.64842291 -26.6015625 4.37890625 C-18.20802463 -2.2977716 -10.17945445 -3.69674925 0 0 Z " fill="#FDADDE" transform="translate(210.8515625,366.80859375)"/>
<path d="M0 0 C27.72 0 55.44 0 84 0 C84 6.93 84 13.86 84 21 C56.28 21 28.56 21 0 21 C0 14.07 0 7.14 0 0 Z " fill="#000000" transform="translate(708,452)"/>
<path d="M0 0 C2.9375 1.25 2.9375 1.25 6 3 C6.875 5.1875 6.875 5.1875 7 7 C8.32 7.33 9.64 7.66 11 8 C11 8.66 11 9.32 11 10 C10.34 10 9.68 10 9 10 C9 10.66 9 11.32 9 12 C8.34 12 7.68 12 7 12 C6 10.33333333 5 8.66666667 4 7 C2.37163262 5.2958946 0.71230248 3.61974559 -1 2 C-0.67 1.34 -0.34 0.68 0 0 Z " fill="#F8B8C2" transform="translate(25,281)"/>
<path d="M0 0 C3.75149952 1.3821314 6.14163444 2.28326889 8 6 C7.01 6.495 7.01 6.495 6 7 C6.99 8.485 6.99 8.485 8 10 C7.67 10.99 7.34 11.98 7 13 C7 12.34 7 11.68 7 11 C6.34 11 5.68 11 5 11 C0.57142857 3.57142857 0.57142857 3.57142857 0 0 Z " fill="#F6B0C3" transform="translate(76,365)"/>
<path d="M0 0 C2.97 0.495 2.97 0.495 6 1 C6 1.66 6 2.32 6 3 C5.34 3 4.68 3 4 3 C4 3.66 4 4.32 4 5 C3.34 5 2.68 5 2 5 C1.34 3.35 0.68 1.7 0 0 Z " fill="#F7A0C2" transform="translate(30,288)"/>
<path d="M0 0 C2.46800047 1.15173355 4.04783565 2.04783565 6 4 C5.67 4.99 5.34 5.98 5 7 C2.5 5.1875 2.5 5.1875 0 3 C0 2.01 0 1.02 0 0 Z " fill="#EA9ABF" transform="translate(66,237)"/>
<path d="M0 0 C2.8992226 0.46761655 3.86675182 0.86675182 6 3 C5.34 3 4.68 3 4 3 C4.33 3.99 4.66 4.98 5 6 C4.34 6 3.68 6 3 6 C1.61767557 4.37373596 0.28062485 2.7074998 -1 1 C-0.67 0.67 -0.34 0.34 0 0 Z " fill="#F8B9C4" transform="translate(158,283)"/>
<path d="" fill="#FF0000" transform="translate(0,0)"/>
</svg>
