<?xml version="1.0" encoding="UTF-8"?>
<svg version="1.1" xmlns="http://www.w3.org/2000/svg" width="1366" height="768">
<path d="M0 0 C2.16874252 0.50603992 3.99967627 0.99983813 6 2 C6 2.66 6 3.32 6 4 C6.66 4.226875 7.32 4.45375 8 4.6875 C11.88658628 6.3878815 15.63679817 8.39623084 19 11 C19 11.66 19 12.32 19 13 C19.66 13 20.32 13 21 13 C21 13.66 21 14.32 21 15 C21.763125 15.12375 22.52625 15.2475 23.3125 15.375 C26 16 26 16 29 18 C29 18.66 29 19.32 29 20 C29.78375 20.309375 30.5675 20.61875 31.375 20.9375 C34 22 34 22 36 23 C36 23.66 36 24.32 36 25 C36.74080811 25.27078369 37.48161621 25.54156738 38.24487305 25.82055664 C40.87058965 26.94460067 42.81540126 28.15396639 45.08203125 29.87109375 C45.84016113 30.43940918 46.59829102 31.00772461 47.37939453 31.59326172 C48.58378174 32.50615967 48.58378174 32.50615967 49.8125 33.4375 C51.53381424 34.72185264 53.25648892 36.00438385 54.98046875 37.28515625 C55.83431152 37.91953613 56.6881543 38.55391602 57.56787109 39.20751953 C80.2154259 55.89878107 103.96493842 70.9719806 129.80859375 82.140625 C133.3566709 83.68542227 136.81418689 85.37080013 140.25805664 87.13476562 C142.45531916 88.22615993 144.70372148 89.13889556 147 90 C146.236875 88.948125 145.47375 87.89625 144.6875 86.8125 C142.62004772 83.96276847 140.80310483 81.02325096 139 78 C134.49724635 70.88931663 129.70835147 64.18540236 124.296875 57.73828125 C121.91973284 54.90430735 119.61935996 52.01631609 117.3125 49.125 C114.14095419 45.2356833 111.02281012 41.99132034 107 39 C108.76635742 38.34765625 108.76635742 38.34765625 111 38 C112.83325195 38.93359375 112.83325195 38.93359375 114.73828125 40.4375 C115.82629028 41.2737793 115.82629028 41.2737793 116.9362793 42.12695312 C118.11250854 43.05411133 118.11250854 43.05411133 119.3125 44 C142.85489586 61.91710065 168.54413233 76.37037803 194.38525391 90.65600586 C205.84047256 96.99582798 217.2875346 103.3443288 228.0859375 110.765625 C230.66602002 112.42951495 233.37349716 113.73349563 236.13671875 115.0625 C238.96803905 116.48706367 241.46263694 118.0969777 244 120 C244 120.66 244 121.32 244 122 C245.1446875 122.185625 245.1446875 122.185625 246.3125 122.375 C249 123 249 123 252 125 C252 125.66 252 126.32 252 127 C252.56203125 127.09925781 253.1240625 127.19851563 253.703125 127.30078125 C256.4995333 128.15206881 258.38057364 129.47834373 260.75 131.1875 C262.05324219 132.12335938 262.05324219 132.12335938 263.3828125 133.078125 C266.94244084 135.69206103 270.48823769 138.322036 274 141 C270.30186176 134.25567494 266.62987678 128.09134416 261.28515625 122.5234375 C260 121 260 121 260 119 C259.42765625 118.74089844 258.8553125 118.48179687 258.265625 118.21484375 C255.80384197 116.89481871 253.86526565 115.38397875 251.75 113.5625 C251.04359375 112.96566406 250.3371875 112.36882812 249.609375 111.75390625 C248 110 248 110 248 107 C253.22122068 108.13583393 257.90925317 110.54618631 262.75 112.75 C263.71421875 113.18054688 264.6784375 113.61109375 265.671875 114.0546875 C271.41327216 116.66015849 276.74046794 119.52999915 282 123 C283.53792903 123.94361892 285.07903279 124.88210882 286.625 125.8125 C287.470625 126.32167969 288.31625 126.83085937 289.1875 127.35546875 C291.1695137 128.51439621 293.17178124 129.63902286 295.1875 130.73828125 C304.09814524 135.6290104 312.07337672 141.31928409 320.10449219 147.53808594 C322.96369455 149.74325128 325.85654723 151.90260502 328.75 154.0625 C330.5 155.375 332.25 156.6875 334 158 C334.76828125 158.53496094 335.5365625 159.06992187 336.328125 159.62109375 C336.87984375 160.07613281 337.4315625 160.53117188 338 161 C338 161.66 338 162.32 338 163 C338.804375 163.37125 338.804375 163.37125 339.625 163.75 C342.5823982 165.30652537 345.29724051 167.03435673 348 169 C348 169.66 348 170.32 348 171 C348.598125 171.268125 349.19625 171.53625 349.8125 171.8125 C351.99847854 172.99917406 353.41332594 174.09599113 355 176 C355 176.66 355 177.32 355 178 C355.639375 178.268125 356.27875 178.53625 356.9375 178.8125 C359 180 359 180 360 183 C361.32646156 183.6802367 362.66093665 184.34491865 364 185 C365.921875 186.875 365.921875 186.875 367.75 189 C368.36359375 189.70125 368.9771875 190.4025 369.609375 191.125 C371 193 371 193 371 195 C371.66 195 372.32 195 373 195 C374.41015625 196.73046875 374.41015625 196.73046875 376.0625 199.1875 C376.68125 200.10015625 377.3 201.0128125 377.9375 201.953125 C378.618125 202.95859375 379.29875 203.9640625 380 205 C381.13397019 206.59858297 382.26795872 208.19715334 383.40307617 209.79492188 C387.7551488 215.96058721 391.56360261 222.2779244 395 229 C395.44085938 229.83144531 395.88171875 230.66289062 396.3359375 231.51953125 C405.67442445 249.48904402 409.65791185 269.88148481 406 290 C405.34592489 292.00415323 404.6776254 294.00368633 404 296 C402.9898184 299.32255042 401.99289627 302.6488086 401 305.9765625 C400.17121198 308.48235126 399.2613611 310.6912587 398 313 C397.34 313 396.68 313 396 313 C395.67 314.98 395.34 316.96 395 319 C394.34 319 393.68 319 393 319 C393 319.99 393 320.98 393 322 C392.34 322 391.68 322 391 322 C390.9175 322.53625 390.835 323.0725 390.75 323.625 C389.72418729 326.87340691 388.03436106 329.28751859 386 332 C385.34 332 384.68 332 384 332 C383.72027344 332.59425781 383.44054687 333.18851562 383.15234375 333.80078125 C377.59604849 344.40482948 365.92786089 351.87811833 356 358 C355.31808594 358.42925781 354.63617188 358.85851562 353.93359375 359.30078125 C343.78769861 365.33600064 332.658321 368.58539201 321 370 C320.14792969 370.12246094 319.29585938 370.24492188 318.41796875 370.37109375 C313.21071644 371.03532593 308.4076825 370.90338005 303.19921875 370.31640625 C300.71331966 370.0705481 298.2624569 369.89642374 295.76953125 369.77734375 C295.02388916 369.74108887 294.27824707 369.70483398 293.51000977 369.66748047 C292.04071562 369.5992298 290.57113876 369.53673706 289.10131836 369.48095703 C284.47352637 369.25452404 280.45015124 368.39375884 276 367 C275.030625 366.855625 274.06125 366.71125 273.0625 366.5625 C269.98443366 365.99714088 267.25271835 365.03419029 264.34765625 363.88671875 C260.56117133 362.4565489 256.69233675 361.27675075 252.83203125 360.0625 C249.96122324 358.98545203 247.58511561 357.63680687 245 356 C242.00794189 354.44412978 239.2000503 353.06668343 236 352 C235 351 234 350 233 349 C231.06669397 347.90833725 231.06669397 347.90833725 229 347 C226.08182063 345.67355483 224.21050635 344.31098391 222 342 C221.34 341.67 220.68 341.34 220 341 C220 340.34 220 339.68 220 339 C219.01 339 218.02 339 217 339 C217 338.34 217 337.68 217 337 C216.29617187 336.76796875 215.59234375 336.5359375 214.8671875 336.296875 C211.47505497 334.76255893 208.90275406 332.67375192 206.125 330.25 C205.57054199 329.77336914 205.01608398 329.29673828 204.44482422 328.80566406 C197.44999865 322.7379104 190.67620821 316.41533271 184 310 C183.33967773 309.37029297 182.67935547 308.74058594 181.99902344 308.09179688 C181.35739258 307.46853516 180.71576172 306.84527344 180.0546875 306.203125 C179.46929199 305.63754883 178.88389648 305.07197266 178.28076172 304.48925781 C177 303 177 303 177 301 C176.41605469 300.75121094 175.83210937 300.50242187 175.23046875 300.24609375 C172.68683716 298.82504563 171.20592302 297.26807085 169.3125 295.0625 C168.40951172 294.02802734 168.40951172 294.02802734 167.48828125 292.97265625 C166 291 166 291 165 288 C164.34 288 163.68 288 163 288 C161.2734375 286.1015625 161.2734375 286.1015625 159.375 283.625 C158.74335938 282.81289063 158.11171875 282.00078125 157.4609375 281.1640625 C156 279 156 279 156 277 C155.34 277 154.68 277 154 277 C152.72241211 275.62988281 152.72241211 275.62988281 151.27734375 273.703125 C150.74262451 272.99687988 150.20790527 272.29063477 149.65698242 271.56298828 C149.08955322 270.79970215 148.52212402 270.03641602 147.9375 269.25 C147.35911377 268.48026855 146.78072754 267.71053711 146.18481445 266.91748047 C145.01091923 265.35456277 143.83928051 263.78994764 142.66992188 262.22363281 C141.17750254 260.23635864 139.66617011 258.26656898 138.140625 256.3046875 C137.72176025 255.76166992 137.30289551 255.21865234 136.87133789 254.65917969 C135.75387974 253.21102398 134.63290881 251.76558083 133.51171875 250.3203125 C132 248 132 248 132 245 C131.34 245 130.68 245 130 245 C128.74609375 243.609375 128.74609375 243.609375 127.4375 241.75 C127.00308594 241.14671875 126.56867188 240.5434375 126.12109375 239.921875 C124.96744258 237.94418728 124.44027221 236.23598922 124 234 C124.66 233.67 125.32 233.34 126 233 C126.59425781 233.49628906 127.18851562 233.99257813 127.80078125 234.50390625 C135.89071574 241.13438133 144.16397811 247.244428 154 251 C155.81320165 251.72742013 157.62566733 252.45667674 159.4375 253.1875 C160.95799227 253.7925245 162.47870673 254.3969924 164 255 C164.33 254.67 164.66 254.34 165 254 C165 253.34 165 252.68 165 252 C164.34 252 163.68 252 163 252 C163 251.34 163 250.68 163 250 C162.34 250 161.68 250 161 250 C161 249.34 161 248.68 161 248 C160.01 247.67 159.02 247.34 158 247 C158 246.34 158 245.68 158 245 C157.01 244.67 156.02 244.34 155 244 C153.39453125 242.44140625 153.39453125 242.44140625 151.8125 240.5625 C151.28269531 239.94503906 150.75289062 239.32757813 150.20703125 238.69140625 C149 237 149 237 149 235 C148.41734375 234.7525 147.8346875 234.505 147.234375 234.25 C144.66885764 232.81474554 143.16275202 231.22336987 141.25 229 C140.63640625 228.29875 140.0228125 227.5975 139.390625 226.875 C138 225 138 225 138 223 C137.01 222.67 136.02 222.34 135 222 C133.52734375 220.35546875 133.52734375 220.35546875 131.9375 218.1875 C129.12295276 214.44462521 126.20945557 210.82788135 123.1875 207.25 C114.70860342 197.16030694 106.88321389 186.55651957 99 176 C97.93789433 174.58303767 96.87544169 173.16633529 95.8125 171.75 C95.35230469 171.13253906 94.89210938 170.51507813 94.41796875 169.87890625 C93.39349989 168.52141445 92.35224655 167.17653412 91.30078125 165.83984375 C90.47126953 164.77443359 90.47126953 164.77443359 89.625 163.6875 C89.12226562 163.05199219 88.61953125 162.41648437 88.1015625 161.76171875 C87 160 87 160 87 157 C86.01 156.67 85.02 156.34 84 156 C82.30859375 153.953125 82.30859375 153.953125 80.4375 151.25 C76.82605711 146.11865749 73.05732197 141.1511504 69.15014648 136.24121094 C66 132.21743207 66 132.21743207 66 130 C65.34 130 64.68 130 64 130 C62.13386231 127.78433176 60.3668212 125.56020497 58.625 123.25 C54.86052904 118.26872984 54.86052904 118.26872984 50.6484375 113.671875 C49 112 49 112 49 110 C48.34 110 47.68 110 47 110 C46.34 108.35 45.68 106.7 45 105 C49.60139641 106.48868707 52.50227094 108.74629855 56 112 C56 112.66 56 113.32 56 114 C56.82564453 114.37125 56.82564453 114.37125 57.66796875 114.75 C60.45979357 116.24645552 62.80754439 118.05978542 65.3125 120 C76.01625216 128.1582661 87.27217548 135.40446368 99 142 C97.04018861 132.83168694 92.50015428 125.03525892 88.03076172 116.90600586 C86.62288166 114.30266156 85.32204618 111.64774443 84 109 C77.04294408 96.29346005 68.58387226 84.63999798 60 73 C59.33742187 72.09121094 58.67484375 71.18242187 57.9921875 70.24609375 C49.19035987 58.31003599 39.62598872 46.97170743 29.9375 35.75 C29.41381836 35.14244873 28.89013672 34.53489746 28.35058594 33.90893555 C26.13329138 31.35947679 23.90034039 28.90080828 21.50390625 26.515625 C17.9289226 22.92390975 14.72277235 19.04633874 11.4609375 15.171875 C9.10624536 12.39454581 6.7522668 9.71115628 4.125 7.1875 C2 5 2 5 2 3 C1.34 3 0.68 3 0 3 C0 2.01 0 1.02 0 0 Z M300 348 C304 349 304 349 304 349 Z M312 349 C312 349.33 312 349.66 312 350 C314.31 350 316.62 350 319 350 C319 349.67 319 349.34 319 349 C316.69 349 314.38 349 312 349 Z " fill="#6CC18E" transform="translate(8,176)"/>
<path d="M0 0 C14.31569433 11.28288798 23.12308858 26.75349179 25.84375 44.78173828 C28.37951561 67.03572296 25.7543222 90.57088983 11.546875 108.66796875 C1.73478338 120.32935773 -12.32974849 128.7045182 -27.515625 130.96484375 C-48.06243768 132.70893366 -67.68627625 130.89640863 -84.72265625 118.11328125 C-98.99014606 105.78255476 -106.87425068 90.03798885 -108.875 71.25 C-110.05750623 48.20760952 -108.22455471 26.66089303 -92.79296875 8.265625 C-69.47140064 -16.24339566 -27.5717037 -19.02293524 0 0 Z " fill="#000100" transform="translate(363.875,393.75)"/>
<path d="M0 0 C11.88 0 23.76 0 36 0 C36 23.76 36 47.52 36 72 C39.52544362 68.47656318 39.52544362 68.47656318 43.03515625 64.9375 C54.67068596 53.81761034 67.49777826 52.6013577 82.80859375 52.78515625 C88.57942063 52.95109716 93.64912892 53.78461431 99 56 C99.84433594 56.3403125 100.68867187 56.680625 101.55859375 57.03125 C115.55685996 63.33792701 123.43769801 74.86152258 128.9375 88.828125 C131.9919891 97.94667333 133.56933648 107.40794888 134 117 C134.07927734 118.62228516 134.07927734 118.62228516 134.16015625 120.27734375 C134.73368908 143.24359329 130.25685176 165.68000959 114.19140625 182.96484375 C101.90555723 194.3746964 86.20588909 196.67155262 70.171875 196.140625 C65.51978126 195.8394103 61.32287772 194.68679857 57 193 C56.29875 192.73316406 55.5975 192.46632813 54.875 192.19140625 C47.33417397 188.87756669 41.73822568 182.73822568 36 177 C36 182.28 36 187.56 36 193 C24.12 193 12.24 193 0 193 C0 129.31 0 65.62 0 0 Z M45 91 C38.63609584 99.87683041 35.61650331 109.15339494 35 120 C34.95875 120.69480469 34.9175 121.38960937 34.875 122.10546875 C34.52394564 134.15102141 36.48843479 146.92156753 44.375 156.375 C50.8473411 163.19088362 57.53589728 165.93395708 66.8125 166.375 C74.04233585 166.20790056 82.2920923 163.78734059 87.66015625 158.73046875 C97.68582607 145.78186312 98.16595726 129.65589107 97 114 C95.61013761 103.08824384 92.44264681 94.07381443 83.5625 87.125 C72.18249572 79.79341373 54.51643496 80.95487421 45 91 Z " fill="#000000" transform="translate(421,329)"/>
<path d="M0 0 C12.21 0 24.42 0 37 0 C42.87201547 14.78644432 48.19756092 29.72946473 53.4375 44.75 C55.05941766 49.39124935 56.68344999 54.03175437 58.30859375 58.671875 C58.7004184 59.79235229 59.09224304 60.91282959 59.49594116 62.06726074 C62.46547004 70.53709075 65.51564483 78.97568789 68.64219666 87.38885498 C68.9537117 88.23409729 69.26522675 89.0793396 69.58618164 89.95019531 C69.86047501 90.68796204 70.13476837 91.42572876 70.41737366 92.18585205 C71 94 71 94 71 96 C73.81512237 94.59243881 73.85243589 93.10290057 74.85668945 90.14941406 C75.21541641 89.10651215 75.57414337 88.06361023 75.94374084 86.98910522 C76.32968918 85.84285675 76.71563751 84.69660828 77.11328125 83.515625 C77.51973373 82.32820709 77.92618622 81.14078918 78.34495544 79.91738892 C79.21943327 77.36001196 80.09125723 74.80190871 80.95861816 72.24212646 C82.30866695 68.2580776 83.66829566 64.27734767 85.03027344 60.29736328 C85.48459566 58.96951535 85.93891085 57.64166501 86.39321899 56.31381226 C86.7300514 55.32939211 86.7300514 55.32939211 87.07368851 54.32508469 C87.75480294 52.33331531 88.43494611 50.34121665 89.11483765 48.34902954 C94.63065991 32.19269926 100.3181086 16.0986923 106 0 C117.88 0 129.76 0 142 0 C140.87494018 6.7503589 140.87494018 6.7503589 139.67163086 9.96191406 C139.26769104 11.05190201 139.26769104 11.05190201 138.85559082 12.16390991 C138.41467102 13.32800888 138.41467102 13.32800888 137.96484375 14.515625 C137.65518677 15.34591217 137.34552979 16.17619934 137.02648926 17.03164673 C136.00225348 19.77316424 134.97002041 22.511593 133.9375 25.25 C133.20742343 27.19795194 132.47769305 29.14603366 131.74829102 31.09423828 C126.39123516 45.38308412 120.97255571 59.64878028 115.51342773 73.89892578 C111.60504864 84.10995019 107.74547532 94.33821919 103.92735481 104.58329391 C102.38777432 108.71185588 100.84364618 112.8387204 99.29989147 116.96572304 C98.0344041 120.35050448 96.77232502 123.73647868 95.51803589 127.12542725 C81.86415684 164.0043648 81.86415684 164.0043648 72 177 C71.49210937 177.68320312 70.98421875 178.36640625 70.4609375 179.0703125 C62.42672833 189.08451635 50.64628576 194.79369717 38.0625 196.75 C36.71061349 196.86451931 35.355569 196.9439243 34 197 C33.03578125 197.03996094 32.0715625 197.07992187 31.078125 197.12109375 C20.28447017 197.34058195 9.96890506 196.30031199 0 192 C0.64700045 182.13324315 2.87379712 172.6321935 5 163 C8.76674086 161.89975614 10.90161898 162.32400558 14.6875 163.4375 C23.5313938 165.77726802 32.84141282 166.27348327 41.16796875 161.84765625 C46.54829971 158.20356717 49.28834529 153.81900152 52 148 C52.33 147.34 52.66 146.68 53 146 C53.00462097 139.33466942 50.98164183 133.51025446 48.51953125 127.40625 C48.15901169 126.48632263 47.79849213 125.56639526 47.42704773 124.61859131 C46.23198825 121.57510424 45.02206648 118.53774724 43.8125 115.5 C42.96359482 113.3439158 42.11596561 111.18732883 41.26953125 109.03027344 C39.46418918 104.43080883 37.65438478 99.83313417 35.84228516 95.23632812 C31.00010005 82.93143212 26.25528392 70.58866579 21.5 58.25 C20.56083153 55.81500716 19.62162302 53.38002976 18.68237305 50.94506836 C16.11892714 44.29773322 13.55829526 37.64931905 11 31 C10.65183228 30.09509827 10.30366455 29.19019653 9.94494629 28.25787354 C8.23327644 23.80695805 6.52527589 19.35468338 4.82592773 14.89904785 C4.14959131 13.12693335 3.47035778 11.35592537 2.79101562 9.58496094 C2.40880859 8.57852539 2.02660156 7.57208984 1.6328125 6.53515625 C1.31199707 5.693479 0.99118164 4.85180176 0.66064453 3.98461914 C0 2 0 2 0 0 Z " fill="#000000" transform="translate(1200,384)"/>
<path d="M0 0 C1.15177734 -0.020625 2.30355469 -0.04125 3.49023438 -0.0625 C16.90124088 -0.12267277 29.80821915 2.24631188 40.22265625 11.21875 C48.92350725 20.19607664 52.01681548 31.13653687 52.11108398 43.38525391 C52.117771 44.0722084 52.12445801 44.7591629 52.13134766 45.4669342 C52.14532156 46.94828196 52.15723946 48.42965028 52.16729546 49.91102982 C52.18380539 52.2566308 52.20704298 54.60207797 52.23219299 56.94760132 C52.30272006 63.61277532 52.36319667 70.27800846 52.41430664 76.94335938 C52.44610272 81.02875086 52.48736722 85.11395776 52.53450203 89.19919968 C52.55050323 90.75328638 52.5628335 92.30741541 52.57140923 93.86156082 C52.58356897 96.03240999 52.60771726 98.20282444 52.63452148 100.37353516 C52.64998268 102.2250267 52.64998268 102.2250267 52.66575623 104.11392212 C52.92406706 107.09497628 53.27406607 108.79451477 54.9375 111.25 C57.58208379 112.57229189 59.61511301 112.34677194 62.5625 112.3125 C63.56539062 112.30347656 64.56828125 112.29445313 65.6015625 112.28515625 C66.37242187 112.27355469 67.14328125 112.26195312 67.9375 112.25 C69.26124613 121.00799894 70.20025688 129.3762658 69.9375 138.25 C63.34049806 140.89302962 57.51854895 141.74418962 50.4375 141.6875 C49.55191406 141.70748047 48.66632813 141.72746094 47.75390625 141.74804688 C40.10071419 141.74242779 34.06854916 139.8244182 28.125 134.9375 C25.61313329 131.85149233 23.86930803 128.72725445 21.9375 125.25 C20.33577526 123.39140661 20.33577526 123.39140661 18.9375 122.25 C18.6590625 123.24 18.6590625 123.24 18.375 124.25 C14.61711671 132.09253904 8.67949641 136.64975214 0.9375 140.25 C0.050625 140.6625 -0.83625 141.075 -1.75 141.5 C-14.04560759 145.48776462 -29.39439634 144.4411811 -41.0625 139.25 C-50.82207482 134.13433163 -57.09585066 126.64426915 -60.75 116.3046875 C-63.53183939 106.14324638 -63.65081304 92.84060922 -59.0625 83.25 C-50.69047988 69.14441459 -36.8685143 63.85507998 -21.67138672 59.87939453 C-15.64000233 58.42432164 -9.53858654 57.24551876 -3.43701172 56.125 C2.675947 54.9476744 7.46716493 53.21388143 12.9375 50.25 C13.5975 50.25 14.2575 50.25 14.9375 50.25 C16.97150373 43.29727492 16.97150373 43.29727492 15.9375 36.3125 C13.44831619 32.5009373 12.30002207 31.60388616 7.9375 30.25 C-6.70438592 27.62512409 -19.76667777 31.07424386 -32.0625 39.25 C-34.54533844 41.32629179 -36.88525569 43.44499471 -39.16015625 45.74609375 C-41.0625 47.25 -41.0625 47.25 -45.0625 47.25 C-46.80175781 45.32226562 -46.80175781 45.32226562 -48.515625 42.65625 C-49.134375 41.70878906 -49.753125 40.76132812 -50.390625 39.78515625 C-51.02484375 38.78355469 -51.6590625 37.78195312 -52.3125 36.75 C-52.9621875 35.74839844 -53.611875 34.74679687 -54.28125 33.71484375 C-55.88766768 31.23434587 -57.48058266 28.74616693 -59.0625 26.25 C-53.61408317 14.7242135 -39.88870062 8.15543499 -28.421875 3.8984375 C-18.81909297 0.85097927 -10.03149185 0.04387749 0 0 Z M11.375 75 C6.68221685 77.18842433 1.97709129 78.2134518 -3.0625 79.25 C-14.23915904 81.4471731 -14.23915904 81.4471731 -23.5 87.6875 C-26.61180672 92.79086303 -27.95033366 97.22382907 -27.0625 103.25 C-25.19839724 109.08591263 -22.55775263 112.32699328 -17.0625 115.25 C-10.50038286 117.43737238 -2.56243461 117.25370051 3.875 114.6875 C10.28235036 111.36038046 14.21630111 105.83816573 16.9375 99.25 C17.75987919 95.83078269 18.05670035 92.67965748 18.03515625 89.16796875 C18.03193359 88.23662109 18.02871094 87.30527344 18.02539062 86.34570312 C18.01701172 85.38599609 18.00863281 84.42628906 18 83.4375 C17.99548828 82.45845703 17.99097656 81.47941406 17.98632812 80.47070312 C17.97458684 78.06373889 17.95816419 75.65690143 17.9375 73.25 C14.72475732 73.02954806 14.72475732 73.02954806 11.375 75 Z " fill="#000000" transform="translate(1125.0625,381.75)"/>
<path d="M0 0 C1.15177734 -0.020625 2.30355469 -0.04125 3.49023438 -0.0625 C16.90124088 -0.12267277 29.80821915 2.24631188 40.22265625 11.21875 C48.92350725 20.19607664 52.01681548 31.13653687 52.11108398 43.38525391 C52.117771 44.0722084 52.12445801 44.7591629 52.13134766 45.4669342 C52.14532156 46.94828196 52.15723946 48.42965028 52.16729546 49.91102982 C52.18380539 52.2566308 52.20704298 54.60207797 52.23219299 56.94760132 C52.30272006 63.61277532 52.36319667 70.27800846 52.41430664 76.94335938 C52.44610272 81.02875086 52.48736722 85.11395776 52.53450203 89.19919968 C52.55050323 90.75328638 52.5628335 92.30741541 52.57140923 93.86156082 C52.58356897 96.03240999 52.60771726 98.20282444 52.63452148 100.37353516 C52.64998268 102.2250267 52.64998268 102.2250267 52.66575623 104.11392212 C52.92406706 107.09497628 53.27406607 108.79451477 54.9375 111.25 C57.58208379 112.57229189 59.61511301 112.34677194 62.5625 112.3125 C63.56539062 112.30347656 64.56828125 112.29445313 65.6015625 112.28515625 C66.37242187 112.27355469 67.14328125 112.26195312 67.9375 112.25 C69.26124613 121.00799894 70.20025688 129.3762658 69.9375 138.25 C63.34049806 140.89302962 57.51854895 141.74418962 50.4375 141.6875 C49.55191406 141.70748047 48.66632813 141.72746094 47.75390625 141.74804688 C40.10071419 141.74242779 34.06854916 139.8244182 28.125 134.9375 C25.61313329 131.85149233 23.86930803 128.72725445 21.9375 125.25 C20.33577526 123.39140661 20.33577526 123.39140661 18.9375 122.25 C18.6590625 123.24 18.6590625 123.24 18.375 124.25 C14.61711671 132.09253904 8.67949641 136.64975214 0.9375 140.25 C0.050625 140.6625 -0.83625 141.075 -1.75 141.5 C-14.04560759 145.48776462 -29.39439634 144.4411811 -41.0625 139.25 C-50.82207482 134.13433163 -57.09585066 126.64426915 -60.75 116.3046875 C-63.53183939 106.14324638 -63.65081304 92.84060922 -59.0625 83.25 C-50.69047988 69.14441459 -36.8685143 63.85507998 -21.67138672 59.87939453 C-15.64000233 58.42432164 -9.53858654 57.24551876 -3.43701172 56.125 C2.675947 54.9476744 7.46716493 53.21388143 12.9375 50.25 C13.5975 50.25 14.2575 50.25 14.9375 50.25 C16.97150373 43.29727492 16.97150373 43.29727492 15.9375 36.3125 C13.44831619 32.5009373 12.30002207 31.60388616 7.9375 30.25 C-6.70438592 27.62512409 -19.76667777 31.07424386 -32.0625 39.25 C-34.54533844 41.32629179 -36.88525569 43.44499471 -39.16015625 45.74609375 C-41.0625 47.25 -41.0625 47.25 -45.0625 47.25 C-46.80175781 45.32226562 -46.80175781 45.32226562 -48.515625 42.65625 C-49.134375 41.70878906 -49.753125 40.76132812 -50.390625 39.78515625 C-51.02484375 38.78355469 -51.6590625 37.78195312 -52.3125 36.75 C-52.9621875 35.74839844 -53.611875 34.74679687 -54.28125 33.71484375 C-55.88766768 31.23434587 -57.48058266 28.74616693 -59.0625 26.25 C-53.61408317 14.7242135 -39.88870062 8.15543499 -28.421875 3.8984375 C-18.81909297 0.85097927 -10.03149185 0.04387749 0 0 Z M11.375 75 C6.68221685 77.18842433 1.97709129 78.2134518 -3.0625 79.25 C-14.23915904 81.4471731 -14.23915904 81.4471731 -23.5 87.6875 C-26.61180672 92.79086303 -27.95033366 97.22382907 -27.0625 103.25 C-25.19839724 109.08591263 -22.55775263 112.32699328 -17.0625 115.25 C-10.50038286 117.43737238 -2.56243461 117.25370051 3.875 114.6875 C10.28235036 111.36038046 14.21630111 105.83816573 16.9375 99.25 C17.75987919 95.83078269 18.05670035 92.67965748 18.03515625 89.16796875 C18.03193359 88.23662109 18.02871094 87.30527344 18.02539062 86.34570312 C18.01701172 85.38599609 18.00863281 84.42628906 18 83.4375 C17.99548828 82.45845703 17.99097656 81.47941406 17.98632812 80.47070312 C17.97458684 78.06373889 17.95816419 75.65690143 17.9375 73.25 C14.72475732 73.02954806 14.72475732 73.02954806 11.375 75 Z " fill="#000000" transform="translate(765.0625,381.75)"/>
<path d="M0 0 C1.18078125 0.00757324 2.3615625 0.01514648 3.578125 0.02294922 C19.83877388 0.32828213 33.76039708 4.1773215 46.41015625 14.84765625 C48.115356 16.87102738 48.87586707 18.95730466 49.75 21.4375 C49.18152344 21.994375 48.61304688 22.55125 48.02734375 23.125 C43.55504888 27.54503099 39.24556157 32.02780029 35.16015625 36.80859375 C34.07370902 38.06357573 32.92374345 39.26375655 31.75 40.4375 C27.60583555 40.14546157 25.22898582 38.56338118 22 36.0625 C12.32199672 29.1617861 2.4393423 28.05093542 -9.25 29.4375 C-13.821058 30.73624071 -16.56152807 32.40479211 -19.25 36.4375 C-19.66730922 40.74969527 -19.80009563 43.28491868 -17.9375 47.1875 C-10.02207308 53.81436905 2.16165162 55.02043301 11.99023438 57.06054688 C25.77753977 60.06704781 40.5775622 65.15392733 48.75 77.4375 C54.31706816 87.80438014 55.32055274 99.2914403 53.1015625 110.80078125 C49.60184492 122.33190201 43.26183195 130.55087411 32.75 136.4375 C13.26219401 146.23350943 -10.96277833 146.08948984 -31.51171875 139.37109375 C-41.75768813 135.39602496 -52.0813336 129.84568618 -58.25 120.4375 C-59.03369141 118.56933594 -59.03369141 118.56933594 -59.25 116.4375 C-57.94238281 114.47045898 -57.94238281 114.47045898 -55.953125 112.43359375 C-55.2415625 111.69302734 -54.53 110.95246094 -53.796875 110.18945312 C-53.03890625 109.42568359 -52.2809375 108.66191406 -51.5 107.875 C-50.38625 106.72354492 -50.38625 106.72354492 -49.25 105.54882812 C-47.2625356 103.49880864 -45.26209225 101.4633184 -43.25 99.4375 C-42.72704346 98.86088623 -42.20408691 98.28427246 -41.6652832 97.69018555 C-40.25 96.4375 -40.25 96.4375 -37.77734375 96.5234375 C-34.83984977 97.58583872 -33.8003629 98.68440997 -31.8125 101.0625 C-24.84606978 108.44106636 -14.8623909 113.05245596 -4.76171875 113.640625 C5.3436942 113.79574053 5.3436942 113.79574053 14.75 110.4375 C17.46073698 107.5177576 18.20112757 105.46477623 18.25 101.5 C18.10995335 97.9677122 17.86695161 96.62300946 15.9375 93.5625 C8.20403622 88.40685748 -1.24400247 86.57723181 -10.1875 84.5 C-25.34555982 80.81628884 -40.22867148 76.25740751 -49.25 62.4375 C-54.83954561 52.54696446 -54.9359594 39.78115006 -52.4375 28.8984375 C-48.0921397 17.22028169 -40.11064861 10.23114873 -29.16796875 4.91015625 C-19.62252261 1.05570973 -10.23045637 -0.09239088 0 0 Z " fill="#000000" transform="translate(631.25,381.5625)"/>
<path d="M0 0 C0.495 0.495 0.495 0.495 1 1 C0.81747557 8.11570109 -0.67948949 15.16596478 -2.0625 22.125 C-2.24876953 23.08148438 -2.43503906 24.03796875 -2.62695312 25.0234375 C-3.08059056 27.34978331 -3.53832038 29.67523936 -4 32 C-4.556875 31.93143799 -5.11375 31.86287598 -5.6875 31.79223633 C-22.56351046 29.47236905 -22.56351046 29.47236905 -38 35 C-46.36857895 41.81202327 -48.67911732 51.74220312 -49.78283691 62.10411072 C-50.26439831 68.52577524 -50.24539429 74.97323232 -50.31640625 81.41015625 C-50.33701393 82.98913571 -50.35801129 84.56811012 -50.37937927 86.14707947 C-50.4342066 90.27497233 -50.48378699 94.40291168 -50.53222656 98.53088379 C-50.59163287 103.49873616 -50.65764134 108.46650478 -50.72252655 113.43428802 C-50.82004005 120.95614027 -50.90923449 128.47804968 -51 136 C-62.55 136 -74.1 136 -86 136 C-86 90.46 -86 44.92 -86 -2 C-74.78 -2 -63.56 -2 -52 -2 C-52 4.93 -52 11.86 -52 19 C-49.52191579 16.52191579 -48.04489123 14.60671916 -46.25 11.6875 C-36.01079551 -3.69628041 -16.71304283 -7.20389777 0 0 Z " fill="#000000" transform="translate(943,386)"/>
<path d="M0 0 C1.07261046 4.05291519 0.84664172 7.04464315 0.0390625 11.140625 C-0.18523437 12.29304688 -0.40953125 13.44546875 -0.640625 14.6328125 C-1.00414062 16.42332031 -1.00414062 16.42332031 -1.375 18.25 C-1.60960937 19.45914062 -1.84421875 20.66828125 -2.0859375 21.9140625 C-3.85379464 30.85379464 -3.85379464 30.85379464 -5 32 C-6.19625 31.855625 -7.3925 31.71125 -8.625 31.5625 C-18.15778533 30.41856576 -28.32173654 29.3394511 -37 34 C-45.88907109 41.47490069 -48.61335537 50.87192826 -50 62 C-50.10953923 64.52776904 -50.17504924 67.05768627 -50.20532227 69.58764648 C-50.21522186 70.31043289 -50.22512146 71.0332193 -50.23532104 71.77790833 C-50.26664637 74.14227134 -50.29157751 76.50665437 -50.31640625 78.87109375 C-50.33700087 80.52019238 -50.35799797 82.16928602 -50.37937927 83.81837463 C-50.43434109 88.14028874 -50.48386358 92.46224841 -50.53222656 96.78424072 C-50.59150757 101.97981455 -50.65759186 107.17530581 -50.72252655 112.37081146 C-50.8202099 120.24715685 -50.9092887 128.12355734 -51 136 C-62.55 136 -74.1 136 -86 136 C-86 90.46 -86 44.92 -86 -2 C-74.78 -2 -63.56 -2 -52 -2 C-52 4.93 -52 11.86 -52 19 C-51.34 19 -50.68 19 -50 19 C-49.79375 18.34 -49.5875 17.68 -49.375 17 C-45.68424405 8.94744156 -39.83744086 2.73791474 -31.79296875 -1.03515625 C-21.46469264 -4.71770909 -10.02523419 -4.22115124 0 0 Z " fill="#000000" transform="translate(1051,386)"/>
<path d="M0 0 C8.15110039 5.69502494 12.50451719 13.4902085 14.66015625 23.046875 C15.25499569 27.93465949 15.25855307 32.77975347 15.26171875 37.69921875 C15.27396484 38.68535156 15.28621094 39.67148437 15.29882812 40.6875 C15.32233481 52.58188201 13.2890489 64.04090833 5.40625 73.4375 C-0.92904094 79.27988501 -8.35812328 81.02158697 -16.80078125 80.94921875 C-17.5894458 80.94277344 -18.37811035 80.93632812 -19.19067383 80.9296875 C-27.86257427 80.65832798 -33.74604874 78.01954502 -39.80078125 71.76171875 C-49.34023725 59.77567285 -50.17021182 43.15323216 -48.92578125 28.44921875 C-47.53349448 18.2438274 -44.08969669 8.33276205 -35.80078125 1.765625 C-26.16898749 -4.48441764 -10.35993715 -5.15284832 0 0 Z " fill="#7DD756" transform="translate(338.92578125,414.55078125)"/>
<path d="M0 0 C-5.33034627 5.33034627 -16.85441358 5.51247271 -24.12109375 6.015625 C-28.56517324 5.99150517 -32.72017946 5.14570417 -37 4 C-37 3.67 -37 3.34 -37 3 C-36.37544922 2.98018066 -35.75089844 2.96036133 -35.10742188 2.93994141 C-32.23790619 2.84383068 -29.36903453 2.73450513 -26.5 2.625 C-25.02660156 2.57859375 -25.02660156 2.57859375 -23.5234375 2.53125 C-15.49265452 2.21001868 -7.98782111 -0.33282588 0 0 Z " fill="#A8E3AE" transform="translate(346,541)"/>
<path d="M0 0 C4.79132712 0.49627682 8.02090287 2.80228492 11.8125 5.5625 C12.40998047 5.98724609 13.00746094 6.41199219 13.62304688 6.84960938 C15.08740533 7.89223259 16.54445735 8.94510452 18 10 C17.01 10.33 16.02 10.66 15 11 C14.34 10.67 13.68 10.34 13 10 C13.495 10.61875 13.99 11.2375 14.5 11.875 C16 14 16 14 16 16 C15.34 16 14.68 16 14 16 C12.69342506 14.48449078 11.45394299 12.91075765 10.25 11.3125 C7.1085672 7.26532562 4.03197531 4.12478086 0 1 C0 0.67 0 0.34 0 0 Z " fill="#B0E7AC" transform="translate(115,214)"/>
<path d="M0 0 C4.60139641 1.48868707 7.50227094 3.74629855 11 7 C11 7.66 11 8.32 11 9 C11.598125 9.268125 12.19625 9.53625 12.8125 9.8125 C14.97224808 10.98493467 16.35790256 12.19369282 18 14 C17.236875 13.835 16.47375 13.67 15.6875 13.5 C12.96403764 12.90854604 12.96403764 12.90854604 10 13 C8.39453125 11.7578125 8.39453125 11.7578125 6.8125 10.125 C6.28269531 9.59132813 5.75289062 9.05765625 5.20703125 8.5078125 C4 7 4 7 4 5 C3.34 5 2.68 5 2 5 C1.34 3.35 0.68 1.7 0 0 Z " fill="#A5E2A3" transform="translate(53,281)"/>
<path d="M0 0 C3.54377211 2.02321741 6.62790307 4.25284669 9.75 6.875 C15.10798108 11.21887736 20.58152375 14.64685315 27 17.1875 C29 18 29 18 30 20 C21.1372024 18.62913562 13.68464227 13.07349479 6.875 7.515625 C4.86700246 5.84512876 4.86700246 5.84512876 2 4 C1.01 4.495 1.01 4.495 0 5 C-0.5625 3.0625 -0.5625 3.0625 -1 1 C-0.67 0.67 -0.34 0.34 0 0 Z " fill="#9CDBA0" transform="translate(133,409)"/>
<path d="M0 0 C2.90674069 0.6411928 5.42531334 1.56662682 8.109375 2.84765625 C8.86347656 3.20537109 9.61757813 3.56308594 10.39453125 3.93164062 C11.17183594 4.30482422 11.94914062 4.67800781 12.75 5.0625 C13.54277344 5.43955078 14.33554687 5.81660156 15.15234375 6.20507812 C17.10311746 7.13345839 19.05176906 8.06629544 21 9 C21 9.99 21 10.98 21 12 C16.38 9.69 11.76 7.38 7 5 C7.99 6.32 8.98 7.64 10 9 C6.47899095 9 5.89968686 8.41671132 3.3125 6.1875 C2.68988281 5.66542969 2.06726563 5.14335937 1.42578125 4.60546875 C0 3 0 3 0 0 Z " fill="#8FD798" transform="translate(256,283)"/>
<path d="M0 0 C2.16874252 0.50603992 3.99967627 0.99983813 6 2 C6 2.66 6 3.32 6 4 C6.804375 4.28875 7.60875 4.5775 8.4375 4.875 C11 6 11 6 12 8 C10.68 7.67 9.36 7.34 8 7 C8.66708984 7.70576172 8.66708984 7.70576172 9.34765625 8.42578125 C9.91355469 9.04839844 10.47945312 9.67101562 11.0625 10.3125 C11.63097656 10.92738281 12.19945312 11.54226562 12.78515625 12.17578125 C13.18605469 12.77777344 13.58695313 13.37976563 14 14 C13.67 14.99 13.34 15.98 13 17 C11.16056628 15.04709472 9.32840869 13.08818082 7.5 11.125 C6.97535156 10.56941406 6.45070313 10.01382813 5.91015625 9.44140625 C2 5.2265625 2 5.2265625 2 3 C1.34 3 0.68 3 0 3 C0 2.01 0 1.02 0 0 Z " fill="#94DA9D" transform="translate(8,176)"/>
<path d="M0 0 C0.77601562 0.36351562 1.55203125 0.72703125 2.3515625 1.1015625 C9.48156577 4.41982178 16.64664262 7.58340742 23.90625 10.60546875 C26.75874562 11.89125276 29.35849551 13.32934697 32 15 C31.01 15.495 31.01 15.495 30 16 C27.33097598 15.08318271 24.78110972 14.09908258 22.1875 13 C21.43154541 12.68474365 20.67559082 12.3694873 19.89672852 12.04467773 C13.01731126 9.11891525 6.4864935 5.71140237 0 2 C0 1.34 0 0.68 0 0 Z " fill="#A1DFAA" transform="translate(115,248)"/>
<path d="M0 0 C0 0.33 0 0.66 0 1 C-5.39326164 3.2405504 -10.20508255 3.26799958 -15.9375 3.1875 C-16.80568359 3.18685547 -17.67386719 3.18621094 -18.56835938 3.18554688 C-23.47754178 3.15215108 -28.16005388 2.82312009 -33 2 C-33 1.67 -33 1.34 -33 1 C-31.83984375 1.02320313 -30.6796875 1.04640625 -29.484375 1.0703125 C-21.21780958 1.18287322 -13.41459829 1.08921735 -5.28515625 -0.66015625 C-3 -1 -3 -1 0 0 Z " fill="#AAE8AD" transform="translate(342,524)"/>
<path d="M0 0 C0.99 0.33 1.98 0.66 3 1 C-1.37237648 4.90826948 -5.80892357 8.74371305 -10.3125 12.5 C-11.13363281 13.1909375 -11.95476562 13.881875 -12.80078125 14.59375 C-13.52652344 15.0578125 -14.25226563 15.521875 -15 16 C-15.99 15.67 -16.98 15.34 -18 15 C-17.11957031 14.33613281 -16.23914063 13.67226563 -15.33203125 12.98828125 C-14.1587036 12.09655224 -12.98553497 11.20461398 -11.8125 10.3125 C-10.9452832 9.65991211 -10.9452832 9.65991211 -10.06054688 8.99414062 C-6.42004107 6.21748365 -3.16585793 3.30894756 0 0 Z " fill="#B6E8B4" transform="translate(384,515)"/>
<path d="M0 0 C2 0 2 0 3.515625 1.50390625 C4.08796875 2.18324219 4.6603125 2.86257813 5.25 3.5625 C5.86488281 4.28566406 6.47976562 5.00882812 7.11328125 5.75390625 C7.73589844 6.49511719 8.35851562 7.23632812 9 8 C10.14473463 9.33427675 11.29046728 10.66769833 12.4375 12 C13.283125 12.99 14.12875 13.98 15 15 C14.01 15.495 14.01 15.495 13 16 C13 15.34 13 14.68 13 14 C12.01 13.67 11.02 13.34 10 13 C10 12.34 10 11.68 10 11 C9.01 10.67 8.02 10.34 7 10 C5.17578125 7.96875 5.17578125 7.96875 3.3125 5.5 C2.68988281 4.6853125 2.06726563 3.870625 1.42578125 3.03125 C0 1 0 1 0 0 Z " fill="#9EE3A1" transform="translate(156,410)"/>
<path d="M0 0 C0.61488281 0.433125 1.22976563 0.86625 1.86328125 1.3125 C2.67152344 1.869375 3.47976563 2.42625 4.3125 3 C5.11300781 3.556875 5.91351563 4.11375 6.73828125 4.6875 C8.99663018 6.25095964 8.99663018 6.25095964 12 6 C13.75 8.375 13.75 8.375 15 11 C14.67 11.66 14.34 12.32 14 13 C12.86111328 12.06027344 12.86111328 12.06027344 11.69921875 11.1015625 C10.70535156 10.28429687 9.71148437 9.46703125 8.6875 8.625 C7.70136719 7.81289063 6.71523438 7.00078125 5.69921875 6.1640625 C3.01091621 3.94395043 3.01091621 3.94395043 0 2 C0 1.34 0 0.68 0 0 Z " fill="#9CDEA4" transform="translate(273,311)"/>
<path d="M0 0 C0.33 0.66 0.66 1.32 1 2 C-5.09781001 2.22084624 -10.21642935 2.01167675 -16 0 C-16 -0.33 -16 -0.66 -16 -1 C-10.35405862 -2.20126412 -5.47741912 -2.00995423 0 0 Z " fill="#88DAAA" transform="translate(300,543)"/>
<path d="M0 0 C5.10477706 4.35407455 8.36483779 9.84798598 11 16 C10.67 16.66 10.34 17.32 10 18 C8.51389035 15.75432319 7.03603541 13.50390546 5.5625 11.25 C5.14162109 10.61578125 4.72074219 9.9815625 4.28710938 9.328125 C3.88427734 8.709375 3.48144531 8.090625 3.06640625 7.453125 C2.69459229 6.88754883 2.32277832 6.32197266 1.93969727 5.73925781 C0.91868765 3.84950138 0.43567918 2.09607862 0 0 Z " fill="#A9E4A6" transform="translate(392,389)"/>
<path d="M0 0 C4.62 1.65 9.24 3.3 14 5 C14 5.33 14 5.66 14 6 C10.7 6 7.4 6 4 6 C4 5.34 4 4.68 4 4 C2.68 3.67 1.36 3.34 0 3 C0 2.01 0 1.02 0 0 Z " fill="#60BE85" transform="translate(273,535)"/>
<path d="M0 0 C0.99 0.33 1.98 0.66 3 1 C2.45730469 1.33773437 1.91460937 1.67546875 1.35546875 2.0234375 C0.28232422 2.69246094 0.28232422 2.69246094 -0.8125 3.375 C-1.87404297 4.03628906 -1.87404297 4.03628906 -2.95703125 4.7109375 C-4.65432039 5.78188476 -6.33014358 6.88676239 -8 8 C-8.99 7.67 -9.98 7.34 -11 7 C-7.52671426 4.22137141 -3.9587532 2.01536527 0 0 Z " fill="#A5E4A7" transform="translate(363,531)"/>
<path d="M0 0 C-2.42581871 2.42581871 -4.07433869 2.96355664 -7.48046875 3.09765625 C-8.37378906 3.08605469 -9.26710938 3.07445312 -10.1875 3.0625 C-11.53908203 3.04896484 -11.53908203 3.04896484 -12.91796875 3.03515625 C-13.60503906 3.02355469 -14.29210937 3.01195312 -15 3 C-15 2.67 -15 2.34 -15 2 C-9.77487721 0.53329887 -5.4185766 -0.22577402 0 0 Z " fill="#95D695" transform="translate(346,541)"/>
<path d="M0 0 C4.10958767 1.45044271 7.43258745 3.51110752 11 6 C8 7 8 7 5.95703125 6.07421875 C4.89548828 5.38779297 4.89548828 5.38779297 3.8125 4.6875 C3.09707031 4.23761719 2.38164062 3.78773438 1.64453125 3.32421875 C1.10183594 2.88722656 0.55914062 2.45023437 0 2 C0 1.34 0 0.68 0 0 Z " fill="#9DDBAD" transform="translate(205,269)"/>
<path d="M0 0 C4.31392226 0.4793247 6.16569547 1.7457985 9 5 C8.21625 4.814375 7.4325 4.62875 6.625 4.4375 C4.02910225 3.74037734 4.02910225 3.74037734 2 5 C1.34 3.35 0.68 1.7 0 0 Z " fill="#93D49F" transform="translate(62,290)"/>
<path d="M0 0 C2.4375 0.8125 2.4375 0.8125 5 2 C5.33 2.99 5.66 3.98 6 5 C5.34 5.66 4.68 6.32 4 7 C4 6.34 4 5.68 4 5 C3.34 5 2.68 5 2 5 C1.34 3.35 0.68 1.7 0 0 Z " fill="#B4EEA7" transform="translate(53,281)"/>
<path d="M0 0 C4.875 4.625 4.875 4.625 6 8 C4.02 7.34 2.04 6.68 0 6 C0.66 5.67 1.32 5.34 2 5 C1.34 3.35 0.68 1.7 0 0 Z " fill="#95D7A0" transform="translate(153,261)"/>
<path d="M0 0 C2.16874252 0.50603992 3.99967627 0.99983813 6 2 C5.34 3.32 4.68 4.64 4 6 C3.34 5.67 2.68 5.34 2 5 C2 4.34 2 3.68 2 3 C1.34 3 0.68 3 0 3 C0 2.01 0 1.02 0 0 Z " fill="#B1EAAF" transform="translate(8,176)"/>
<path d="M0 0 C0.66 0 1.32 0 2 0 C3.49821059 3.37097383 4 5.20442119 4 9 C2.68 8.67 1.36 8.34 0 8 C0.2784375 7.13375 0.2784375 7.13375 0.5625 6.25 C1.04023546 3.79307475 0.75729364 2.35602466 0 0 Z " fill="#95DA9D" transform="translate(106,312)"/>
<path d="M0 0 C0 0.99 0 1.98 0 3 C-1.8125 4.75 -1.8125 4.75 -4 6 C-4.99 5.67 -5.98 5.34 -7 5 C-4.69 3.35 -2.38 1.7 0 0 Z " fill="#AAE1AA" transform="translate(373,525)"/>
<path d="" fill="#FFFFFF" transform="translate(0,0)"/>
</svg>
