<?xml version="1.0" encoding="UTF-8"?>
<svg version="1.1" xmlns="http://www.w3.org/2000/svg" width="1366" height="768">
<path d="M0 0 C3.5409557 2.11429115 7.06437501 4.25299635 10.5625 6.4375 C11.95662109 7.30181641 11.95662109 7.30181641 13.37890625 8.18359375 C15.90024212 9.93086823 17.86571799 11.8111095 20 14 C20.9075 14.53625 21.815 15.0725 22.75 15.625 C23.4925 16.07875 24.235 16.5325 25 17 C25 17.66 25 18.32 25 19 C25.928125 19.28875 26.85625 19.5775 27.8125 19.875 C31 21 31 21 34 23 C34 23.66 34 24.32 34 25 C34.969375 25.268125 35.93875 25.53625 36.9375 25.8125 C37.948125 26.204375 38.95875 26.59625 40 27 C40.495 28.485 40.495 28.485 41 30 C42.65984798 30.68346682 44.32836805 31.34588315 46 32 C48.45068173 33.51201482 50.85627408 35.07250004 53 37 C53 37.66 53 38.32 53 39 C54.65 39.33 56.3 39.66 58 40 C58 40.66 58 41.32 58 42 C59.32 42.33 60.64 42.66 62 43 C62 43.66 62 44.32 62 45 C62.763125 45.28875 63.52625 45.5775 64.3125 45.875 C67 47 67 47 70 49 C70 49.66 70 50.32 70 51 C70.928125 51.28875 71.85625 51.5775 72.8125 51.875 C76 53 76 53 79 55 C79 55.66 79 56.32 79 57 C79.969375 57.268125 80.93875 57.53625 81.9375 57.8125 C82.948125 58.204375 83.95875 58.59625 85 59 C85.33 59.99 85.66 60.98 86 62 C86.804375 62.268125 87.60875 62.53625 88.4375 62.8125 C93.2988485 64.4329495 100.60536378 67.21072757 103 72 C104.98283997 73.03360807 106.98732771 74.02575658 109 75 C111.65498006 76.47096553 114.26555434 78.01250951 116.875 79.5625 C117.56335938 79.96146484 118.25171875 80.36042969 118.9609375 80.77148438 C120.67586017 81.79057036 122.34309455 82.8890723 124 84 C124 84.66 124 85.32 124 86 C125.5159375 86.37125 125.5159375 86.37125 127.0625 86.75 C131.14625263 87.9073388 134.37227498 89.80967546 138 92 C139.32646156 92.6802367 140.65608877 93.35492261 142 94 C142 94.66 142 95.32 142 96 C144.97 96.495 144.97 96.495 148 97 C148 97.66 148 98.32 148 99 C148.804375 99.185625 148.804375 99.185625 149.625 99.375 C152.4638286 100.12206016 155.22223202 101.05303364 158 102 C158 102.66 158 103.32 158 104 C159.423125 104.2165625 159.423125 104.2165625 160.875 104.4375 C164 105 164 105 166 106 C166 106.66 166 107.32 166 108 C166.99 108.103125 167.98 108.20625 169 108.3125 C173.28297163 108.90808706 176.99996371 110.38595027 181 112 C181 112.66 181 113.32 181 114 C181.66 113.67 182.32 113.34 183 113 C182.34 112.071875 181.68 111.14375 181 110.1875 C179 107 179 107 179 104 C178.34 104 177.68 104 177 104 C177 103.01 177 102.02 177 101 C176.34 101 175.68 101 175 101 C173.3633245 98.73701547 171.85434489 96.48732888 170.375 94.125 C169.74464844 93.14853516 169.74464844 93.14853516 169.1015625 92.15234375 C166 87.26838981 166 87.26838981 166 85 C165.34 85 164.68 85 164 85 C162.51953125 83.12890625 162.51953125 83.12890625 160.8125 80.5625 C157.82023502 76.14325151 154.64976217 71.95355344 151.28515625 67.8125 C150 66 150 66 150 64 C149.34 64 148.68 64 148 64 C148 63.34 148 62.68 148 62 C147.443125 61.773125 146.88625 61.54625 146.3125 61.3125 C141.20793006 58.41531166 137.65853436 53.49477079 134 49 C135.7421875 48.3125 135.7421875 48.3125 138 48 C140.0078125 49.1875 140.0078125 49.1875 142.125 51 C151.60321263 58.80831546 161.97092325 65.57822033 172.359375 72.11328125 C173.23078125 72.73589844 174.1021875 73.35851562 175 74 C175 74.66 175 75.32 175 76 C176.093125 76.28875 177.18625 76.5775 178.3125 76.875 C182 78 182 78 185 80 C185 80.66 185 81.32 185 82 C185.71542969 82.27585937 186.43085938 82.55171875 187.16796875 82.8359375 C189.95738855 83.98248522 192.62290358 85.26227115 195.3125 86.625 C196.19550781 87.07101563 197.07851562 87.51703125 197.98828125 87.9765625 C198.65214844 88.31429687 199.31601563 88.65203125 200 89 C200 89.66 200 90.32 200 91 C201.134375 91.268125 202.26875 91.53625 203.4375 91.8125 C204.613125 92.204375 205.78875 92.59625 207 93 C207.33 93.99 207.66 94.98 208 96 C211.43315137 97.17138134 211.43315137 97.17138134 215 98 C215.66 98.33 216.32 98.66 217 99 C217 99.66 217 100.32 217 101 C217.845625 101.2475 218.69125 101.495 219.5625 101.75 C223.38427474 103.13973627 226.51868063 104.91120838 230 107 C230 107.66 230 108.32 230 109 C230.62648437 109.20496094 231.25296875 109.40992188 231.8984375 109.62109375 C232.71570313 109.89050781 233.53296875 110.15992188 234.375 110.4375 C235.18710938 110.70433594 235.99921875 110.97117187 236.8359375 111.24609375 C239 112 239 112 241 113 C241 113.66 241 114.32 241 115 C242.65 115.33 244.3 115.66 246 116 C246 116.66 246 117.32 246 118 C246.62648437 118.20496094 247.25296875 118.40992188 247.8984375 118.62109375 C248.71570313 118.89050781 249.53296875 119.15992188 250.375 119.4375 C251.18710938 119.70433594 251.99921875 119.97117187 252.8359375 120.24609375 C255 121 255 121 257 122 C257 122.66 257 123.32 257 124 C259.31 124.66 261.62 125.32 264 126 C264 126.66 264 127.32 264 128 C264.845625 128.2475 265.69125 128.495 266.5625 128.75 C270.38427474 130.13973627 273.51868063 131.91120838 277 134 C277 134.66 277 135.32 277 136 C277.99 135.67 278.98 135.34 280 135 C280 135.66 280 136.32 280 137 C280.78375 137.309375 281.5675 137.61875 282.375 137.9375 C285 139 285 139 287 140 C287 140.66 287 141.32 287 142 C287.71542969 142.10441406 288.43085938 142.20882812 289.16796875 142.31640625 C292.31163677 143.07522267 294.55215773 144.26493706 297.3125 145.9375 C298.19550781 146.46214844 299.07851563 146.98679688 299.98828125 147.52734375 C300.65214844 148.01332031 301.31601562 148.49929687 302 149 C302 149.66 302 150.32 302 151 C302.9075 151.28875 303.815 151.5775 304.75 151.875 C307.32202908 152.76531776 309.61346766 153.71494413 312 155 C312 155.66 312 156.32 312 157 C312.66 157.226875 313.32 157.45375 314 157.6875 C317.88658628 159.3878815 321.63679817 161.39623084 325 164 C325 164.66 325 165.32 325 166 C325.86625 166.226875 326.7325 166.45375 327.625 166.6875 C330.82659659 167.93256534 332.86411761 169.3558515 335.41015625 171.625 C338.11747733 173.96646688 341.06953574 175.94867502 344 178 C343.67 177.67 343.34 177.34 343 177 C342.25875172 175.48501847 341.53210675 173.96288001 340.8125 172.4375 C338.36116112 167.4853716 335.4731631 163.27893694 332 159 C330.7934375 157.453125 330.7934375 157.453125 329.5625 155.875 C327.01168745 153.01311275 324.35032621 150.67232697 321.35546875 148.296875 C320.90816406 147.86890625 320.46085937 147.4409375 320 147 C320 146.34 320 145.68 320 145 C319.34 145 318.68 145 318 145 C316.625 143.75 316.625 143.75 315 142 C313.9171875 140.9171875 313.9171875 140.9171875 312.8125 139.8125 C312.214375 139.214375 311.61625 138.61625 311 138 C311.33 137.01 311.66 136.02 312 135 C315.14737182 135.69941596 318.02588876 136.76078698 321 138 C321 138.66 321 139.32 321 140 C323.97 140.66 326.94 141.32 330 142 C330 142.66 330 143.32 330 144 C330.53367187 144.14695313 331.06734375 144.29390625 331.6171875 144.4453125 C337.00625166 146.06762593 341.40832078 148.31696156 346.16015625 151.3046875 C351.58926784 154.54572523 357.31860263 157.23297938 363 160 C363 160.66 363 161.32 363 162 C363.86625 162.2475 364.7325 162.495 365.625 162.75 C369.21084708 164.07809151 371.87866848 165.8084268 375 168 C376.66301753 169.00605689 378.33006789 170.00546266 380 171 C386.56031721 175.03633224 392.88552979 179.28945912 399.07421875 183.875 C401.22421729 185.43654767 403.38122477 186.95114974 405.58203125 188.4375 C406.18160645 188.84371582 406.78118164 189.24993164 407.39892578 189.66845703 C408.57452569 190.46149754 409.75380669 191.2491133 410.93701172 192.03076172 C412.32639029 192.97067273 413.66853435 193.97970359 415 195 C415 195.66 415 196.32 415 197 C415.598125 197.28875 416.19625 197.5775 416.8125 197.875 C419 199 419 199 422 201 C422 201.66 422 202.32 422 203 C422.7734375 203.3403125 422.7734375 203.3403125 423.5625 203.6875 C426.89547005 205.48217618 430.14703671 207.49965015 433 210 C433 210.66 433 211.32 433 212 C433.66 212 434.32 212 435 212 C435 212.66 435 213.32 435 214 C435.66 214 436.32 214 437 214 C437 214.66 437 215.32 437 216 C437.57492187 216.26039063 438.14984375 216.52078125 438.7421875 216.7890625 C441.16814677 218.09018252 443.05058526 219.56876055 445.125 221.375 C445.80820312 221.96023438 446.49140625 222.54546875 447.1953125 223.1484375 C449 225 449 225 449.9921875 227.1015625 C451.27964672 229.52677638 452.55249846 229.85691077 455 231 C456.60546875 232.59375 456.60546875 232.59375 458.1875 234.5 C461.72579468 238.68927964 465.38687877 242.7494695 469.08203125 246.80078125 C473 251.29327902 473 251.29327902 473 255 C473.66 255 474.32 255 475 255 C480.54619812 261.43553018 484.71735948 269.32610508 489.09155273 276.57763672 C489.53958252 277.32029785 489.9876123 278.06295898 490.44921875 278.828125 C491.09383057 279.90030273 491.09383057 279.90030273 491.75146484 280.99414062 C492.88470387 282.81476867 494.08689951 284.55204863 495.33203125 286.296875 C497 289 497 289 497 293 C497.66 293 498.32 293 499 293 C503.594683 303.31944984 507.43746855 313.31021319 509.5234375 324.46484375 C509.85961807 326.25321415 510.22146368 328.03685266 510.6015625 329.81640625 C510.79492188 330.72261719 510.98828125 331.62882812 511.1875 332.5625 C511.36667969 333.38878906 511.54585938 334.21507812 511.73046875 335.06640625 C511.81941406 335.70449219 511.90835937 336.34257812 512 337 C511.67 337.33 511.34 337.66 511 338 C511.30300475 340.33746522 511.63858045 342.67085177 512 345 C512 347.48032176 511.84127521 349.77376223 511.5625 352.23046875 C511.47226562 353.03291016 511.38203125 353.83535156 511.2890625 354.66210938 C511.19367188 355.49548828 511.09828125 356.32886719 511 357.1875 C510.90460938 358.03248047 510.80921875 358.87746094 510.7109375 359.74804688 C510.47544006 361.83219921 510.23791469 363.91612222 510 366 C509.34 366 508.68 366 508 366 C508.103125 367.216875 508.20625 368.43375 508.3125 369.6875 C508.27693274 381.06902209 501.1483837 392.1038273 496 402 C495.34 402 494.68 402 494 402 C493.7525 402.886875 493.505 403.77375 493.25 404.6875 C491.94270316 408.15183662 490.37466761 410.19357464 488 413 C487.46375 413.928125 486.9275 414.85625 486.375 415.8125 C485.694375 416.8953125 485.694375 416.8953125 485 418 C484.34 418 483.68 418 483 418 C482.71125 418.598125 482.4225 419.19625 482.125 419.8125 C481 422 481 422 479 425 C478.34 425 477.68 425 477 425 C476.6596875 425.8353125 476.6596875 425.8353125 476.3125 426.6875 C474.62449964 429.66159588 472.53323483 431.72008865 470 434 C469.34 434 468.68 434 468 434 C467.67 434.99 467.34 435.98 467 437 C465.44140625 438.38671875 465.44140625 438.38671875 463.5625 439.6875 C462.94503906 440.12449219 462.32757813 440.56148437 461.69140625 441.01171875 C460 442 460 442 458 442 C458 442.66 458 443.32 458 444 C455.69914902 445.67362432 453.41637369 447.19594903 451 448.6875 C450.28247559 449.13230713 449.56495117 449.57711426 448.82568359 450.03540039 C428.79949636 462.15283721 407.6522409 467.01553363 384.375 467.125 C383.67544189 467.12967285 382.97588379 467.1343457 382.25512695 467.13916016 C377.24623179 467.12311589 377.24623179 467.12311589 375 466 C373.47986182 465.95402229 371.95785681 465.9619316 370.4375 466 C358.24768848 466.12384424 358.24768848 466.12384424 354 464 C352.02 463.67 350.04 463.34 348 463 C348 481.81 348 500.62 348 520 C332.16 520 316.32 520 300 520 C299.67 494.92 299.34 469.84 299 444 C297.68 443.34 296.36 442.68 295 442 C295 441.34 295 440.68 295 440 C294.0925 439.71125 293.185 439.4225 292.25 439.125 C289.67797092 438.23468224 287.38653234 437.28505587 285 436 C285 435.34 285 434.68 285 434 C283.02 433.34 281.04 432.68 279 432 C279 431.34 279 430.68 279 430 C278.278125 429.7525 277.55625 429.505 276.8125 429.25 C273.73105265 427.88046785 271.5939755 426.14002978 269 424 C268.13375 423.484375 267.2675 422.96875 266.375 422.4375 C264.18362547 421.11114173 262.75484999 419.83114781 261 418 C260.278125 417.484375 259.55625 416.96875 258.8125 416.4375 C258.214375 415.963125 257.61625 415.48875 257 415 C257 414.34 257 413.68 257 413 C256.195625 412.731875 255.39125 412.46375 254.5625 412.1875 C253.716875 411.795625 252.87125 411.40375 252 411 C251.67 410.01 251.34 409.02 251 408 C249.11683841 406.89163577 249.11683841 406.89163577 247 406 C246.01 405.34 245.02 404.68 244 404 C244 403.34 244 402.68 244 402 C243.43152344 401.75894531 242.86304688 401.51789063 242.27734375 401.26953125 C239.55211092 399.75031912 237.73309661 397.92581019 235.5625 395.6875 C234.77488281 394.88183594 233.98726562 394.07617188 233.17578125 393.24609375 C232.45777344 392.50488281 231.73976562 391.76367188 231 391 C230.0925 390.0925 229.185 389.185 228.25 388.25 C227.5075 387.5075 226.765 386.765 226 386 C225.071875 385.113125 224.14375 384.22625 223.1875 383.3125 C221 381 221 381 221 379 C220.443125 378.79375 219.88625 378.5875 219.3125 378.375 C216.70781912 376.82627083 215.14630183 374.92390656 213.27734375 372.56640625 C211.88442574 370.80436667 211.88442574 370.80436667 209.625 368.625 C199.56521739 358.56521739 199.56521739 358.56521739 198 353 C197.34 353 196.68 353 196 353 C193 349.53846154 193 349.53846154 193 347 C192.34 347 191.68 347 191 347 C189.16880822 344.86959387 187.4485446 342.73257495 185.75 340.5 C185.25781982 339.8608667 184.76563965 339.2217334 184.25854492 338.56323242 C183.28021745 337.29077782 182.30449559 336.01631514 181.33154297 334.73974609 C180.21499791 333.28090853 179.08030571 331.83598465 177.94140625 330.39453125 C177.40386719 329.70746094 176.86632812 329.02039063 176.3125 328.3125 C175.85488281 327.73113281 175.39726562 327.14976562 174.92578125 326.55078125 C174 325 174 325 174 322 C173.34 322 172.68 322 172 322 C169.06026678 318.54563722 166.56033213 314.74121139 164 311 C163.58105469 310.3905957 163.16210938 309.78119141 162.73046875 309.15332031 C161.45145551 307.27827144 160.19142338 305.39190177 158.9375 303.5 C158.53136475 302.90106934 158.12522949 302.30213867 157.70678711 301.68505859 C156.72301967 300.17338972 155.85146215 298.58995389 155 297 C155.33 296.01 155.66 295.02 156 294 C156.66 294 157.32 294 158 294 C158 294.66 158 295.32 158 296 C158.61875 296.309375 159.2375 296.61875 159.875 296.9375 C161.25 297.625 162.625 298.3125 164 299 C164 299.66 164 300.32 164 301 C164.721875 301.268125 165.44375 301.53625 166.1875 301.8125 C170.49249774 303.63016571 173.71792911 305.71792911 177 309 C179.09989652 310.17574711 179.09989652 310.17574711 181 311 C181 311.66 181 312.32 181 313 C182.98 313.33 184.96 313.66 187 314 C187 314.66 187 315.32 187 316 C187.86625 316.144375 188.7325 316.28875 189.625 316.4375 C190.73875 316.623125 191.8525 316.80875 193 317 C194.0725 317.144375 195.145 317.28875 196.25 317.4375 C199 318 199 318 201 320 C202.96488831 320.88778692 202.96488831 320.88778692 205.125 321.625 C206.21167969 322.01558594 206.21167969 322.01558594 207.3203125 322.4140625 C207.87460938 322.60742188 208.42890625 322.80078125 209 323 C205.51035359 318.80151917 202.00242441 314.88887657 197.8125 311.375 C194.49472254 308.56764984 192.32742804 305.69178241 190 302 C189.13375 301.13375 188.2675 300.2675 187.375 299.375 C185 297 185 297 183.9375 294.8125 C183.15288275 292.84671617 183.15288275 292.84671617 181.17578125 292.13671875 C178.58877333 290.78515806 177.14827178 289.20653814 175.25 287 C174.63640625 286.29875 174.0228125 285.5975 173.390625 284.875 C172 283 172 283 172 281 C171.01 280.67 170.02 280.34 169 280 C167.5625 278.390625 167.5625 278.390625 166 276.25 C162.91801864 272.15162053 159.69999355 268.21331791 156.375 264.3125 C155.91996094 263.77850586 155.46492187 263.24451172 154.99609375 262.69433594 C154.55136719 262.17258789 154.10664063 261.65083984 153.6484375 261.11328125 C153.21370117 260.60104004 152.77896484 260.08879883 152.33105469 259.56103516 C151.41115197 258.48219107 150.48424271 257.40929619 149.55175781 256.34130859 C146 252.21842013 146 252.21842013 146 250 C145.34 250 144.68 250 144 250 C143.566875 249.0409375 143.566875 249.0409375 143.125 248.0625 C142.17176549 245.84793921 142.17176549 245.84793921 140 245 C138.98498871 243.34243255 137.98725401 241.67424828 137 240 C135.79577618 238.45934114 134.56509817 236.93909334 133.3125 235.4375 C129.49566981 230.74202566 126.141954 225.84157758 122.859375 220.76171875 C120.25448648 216.89269315 117.33756927 213.36280973 114.25 209.875 C112 207 112 207 112 204 C111.34 204 110.68 204 110 204 C109.01 201.525 109.01 201.525 108 199 C107.34 199 106.68 199 106 199 C106 198.01 106 197.02 106 196 C105.34 196 104.68 196 104 196 C102.36860063 194.07412421 100.86276775 192.15673283 99.375 190.125 C98.95476562 189.56941406 98.53453125 189.01382813 98.1015625 188.44140625 C95 184.26235288 95 184.26235288 95 182 C94.34 182 93.68 182 93 182 C92.06552098 180.65019697 91.14120902 179.29250976 90.26171875 177.90625 C86.38678541 172.05186155 81.82826389 166.65509465 77.06640625 161.5078125 C76 160 76 160 76 157 C74.02 156.01 74.02 156.01 72 155 C72 154.01 72 153.02 72 152 C71.34 152 70.68 152 70 152 C68.4921875 150.5390625 68.4921875 150.5390625 66.875 148.625 C66.33617188 147.99851563 65.79734375 147.37203125 65.2421875 146.7265625 C64 145 64 145 64 143 C63.401875 142.938125 62.80375 142.87625 62.1875 142.8125 C59.04697458 141.64601913 58.41839124 139.97186737 57 137 C56.3125 134.1875 56.3125 134.1875 56 132 C58.94956528 133.36944102 61.52468811 134.87830409 64 137 C64 137.66 64 138.32 64 139 C64.66 139 65.32 139 66 139 C67.02104551 139.97850195 68.0206121 140.97980427 69 142 C69.66 142.33 70.32 142.66 71 143 C71 143.66 71 144.32 71 145 C71.66 145 72.32 145 73 145 C74.33333333 146.33333333 75.66666667 147.66666667 77 149 C78.32520503 149.68268138 79.65812182 150.3507041 81 151 C81.44601563 151.44988281 81.89203125 151.89976562 82.3515625 152.36328125 C89.67832323 159.637956 100.72614065 166.36307033 110 171 C110 171.66 110 172.32 110 173 C111.5778125 173.4021875 111.5778125 173.4021875 113.1875 173.8125 C116.58781041 174.87161308 119.0176025 176.12535015 122 178 C122.66 178 123.32 178 124 178 C123.60167969 177.14277344 123.20335938 176.28554688 122.79296875 175.40234375 C122.26316406 174.25894531 121.73335938 173.11554688 121.1875 171.9375 C120.66542969 170.81214844 120.14335938 169.68679688 119.60546875 168.52734375 C118.54981601 166.20798991 117.52152077 163.87595355 116.5234375 161.53125 C111.67528675 150.29348518 105.84077744 139.84602299 99.24609375 129.5546875 C97.49932017 126.82253612 95.89095369 124.0560723 94.375 121.1875 C90.85336205 114.67555894 86.17954816 108.89977947 81.7421875 102.99609375 C81.02289063 102.02800781 80.30359375 101.05992187 79.5625 100.0625 C78.90378906 99.18722656 78.24507813 98.31195313 77.56640625 97.41015625 C76.11802115 95.18159363 75.42757189 93.59554204 75 91 C74.34 91 73.68 91 73 91 C69 85.58823529 69 85.58823529 69 83 C68.34 83 67.68 83 67 83 C66.34 81.35 65.68 79.7 65 78 C64.34 78 63.68 78 63 78 C61.4921875 76.3203125 61.4921875 76.3203125 59.875 74.125 C59.33617187 73.40570313 58.79734375 72.68640625 58.2421875 71.9453125 C57 70 57 70 57 68 C56.34 68 55.68 68 55 68 C53.4765625 66.3046875 53.4765625 66.3046875 51.625 63.875 C44.15824456 54.30779612 36.14820975 45.19026572 27.9921875 36.20703125 C26.23806619 34.26373999 24.52027306 32.29640552 22.8125 30.3125 C20.42517828 27.55571182 17.95976826 24.88613469 15.453125 22.23828125 C14.81528076 21.5630542 14.17743652 20.88782715 13.52026367 20.19213867 C12.22532773 18.82485814 10.92606741 17.46165897 9.62231445 16.1027832 C9.02636475 15.47331787 8.43041504 14.84385254 7.81640625 14.1953125 C7.27443604 13.62828613 6.73246582 13.06125977 6.17407227 12.47705078 C5 11 5 11 5 9 C4.360625 8.814375 3.72125 8.62875 3.0625 8.4375 C1 7 1 7 0.25 3.375 C0.1675 2.26125 0.085 1.1475 0 0 Z " fill="#FA8C38" transform="translate(0,99)"/>
<path d="M0 0 C1.00546875 0.4228125 2.0109375 0.845625 3.046875 1.28125 C20.42037752 9.72261281 31.31823824 26.28616718 37.72094727 43.99389648 C46.15368037 68.36781513 47.64265741 98.97665603 41 124 C40.74259033 125.03882324 40.74259033 125.03882324 40.47998047 126.09863281 C36.9848184 140.11051579 31.77146159 153.1065543 22 164 C21.31035156 164.77085937 20.62070312 165.54171875 19.91015625 166.3359375 C11.69367736 175.02894328 2.15536448 179.9356424 -9 184 C-9.85335937 184.32226562 -10.70671875 184.64453125 -11.5859375 184.9765625 C-28.88913305 190.40601096 -49.80127848 188.04625346 -66.25 180.9375 C-72.38179708 177.61567466 -80.8387022 171.3225956 -84 165 C-86.52733235 164.34444881 -86.52733235 164.34444881 -89 164 C-88.96970703 164.81186768 -88.93941406 165.62373535 -88.90820312 166.46020508 C-88.11931532 188.5778885 -87.90918711 210.68243432 -87.9375 232.8125 C-87.93878403 233.82325781 -87.93878403 233.82325781 -87.94009399 234.85443497 C-87.95152907 243.23632665 -87.97460894 251.61813022 -88 260 C-103.84 260 -119.68 260 -136 260 C-136.07200434 205.01768876 -135.87706987 150.0395846 -135.55461788 95.05825913 C-135.4923799 84.43049015 -135.43274848 73.80270692 -135.37324238 63.17492235 C-135.25154819 41.44993203 -135.12653684 19.72496268 -135 -2 C-119.82 -2 -104.64 -2 -89 -2 C-88.505 9.88 -88.505 9.88 -88 22 C-83.70225461 20.92556365 -83.46178421 20.77004098 -81.1875 17.375 C-63.25041781 -7.67429184 -27.1390462 -11.43977732 0 0 Z " fill="#000000" transform="translate(436,359)"/>
<path d="M0 0 C7.46324816 6.17330404 12.70005879 12.68961393 17.53125 21.09375 C17.98371094 21.86203125 18.43617188 22.6303125 18.90234375 23.421875 C34.67562121 52.31498137 34.43339656 92.43430795 25.93920898 123.34545898 C21.84446008 137.0869595 15.42598059 149.63561838 5.53125 160.09375 C4.93054687 160.73570312 4.32984375 161.37765625 3.7109375 162.0390625 C-10.7369127 175.98655425 -31.48652753 180.61837264 -50.921875 180.30078125 C-67.38512929 179.72982158 -82.22543834 174.50169711 -94.46875 163.09375 C-95.45257521 161.99097363 -96.41420769 160.86765333 -97.34375 159.71875 C-99.26636635 156.86210606 -99.26636635 156.86210606 -102.46875 156.09375 C-102.46875 187.77375 -102.46875 219.45375 -102.46875 252.09375 C-117.97875 252.09375 -133.48875 252.09375 -149.46875 252.09375 C-149.46875 165.63375 -149.46875 79.17375 -149.46875 -9.90625 C-133.95875 -9.90625 -118.44875 -9.90625 -102.46875 -9.90625 C-102.46875 -1.98625 -102.46875 5.93375 -102.46875 14.09375 C-101.14875 14.09375 -99.82875 14.09375 -98.46875 14.09375 C-98.21222656 13.36027344 -97.95570313 12.62679688 -97.69140625 11.87109375 C-94.15289585 3.83313563 -86.89457735 -1.63981988 -79.46875 -5.90625 C-78.70949219 -6.35871094 -77.95023438 -6.81117188 -77.16796875 -7.27734375 C-53.83871944 -20.14470385 -20.64884508 -15.90198414 0 0 Z M-89.65625 38.03125 C-103.27943333 53.5334931 -103.40637933 75.66724227 -102.46875 95.09375 C-101.05713845 109.74804241 -95.8266371 121.84541103 -84.72265625 131.6328125 C-74.90031753 139.65669484 -63.67221259 140.15327543 -51.46875 139.09375 C-48.15871434 138.52793194 -45.45841701 137.60569992 -42.46875 136.09375 C-41.62828125 135.67996094 -40.7878125 135.26617187 -39.921875 134.83984375 C-33.8782049 131.55873883 -30.01006902 127.96988187 -26.46875 122.09375 C-26.09105469 121.47757812 -25.71335937 120.86140625 -25.32421875 120.2265625 C-15.32265968 102.17131355 -16.18836067 74.7272032 -21.46875 55.44140625 C-25.20015716 43.94032563 -30.62918915 35.78818146 -41.46875 30.09375 C-57.7496995 22.68010335 -76.63471003 25.84980938 -89.65625 38.03125 Z " fill="#000000" transform="translate(1105.46875,366.90625)"/>
<path d="M0 0 C16.5 0 33 0 50 0 C67.64089307 49.18067159 67.64089307 49.18067159 74.46875 68.3203125 C74.91761822 69.57835046 75.36649108 70.83638676 75.81536865 72.09442139 C77.95669872 78.09632673 80.09688366 84.09863679 82.23535156 90.1015625 C84.13076493 95.42091112 86.03733508 100.73617713 87.94702148 106.05041504 C88.98613824 108.96117067 90.00720746 111.87776401 91.02539062 114.79589844 C91.64682042 116.54893982 92.26854686 118.30187608 92.890625 120.0546875 C93.16388611 120.85335236 93.43714722 121.65201721 93.71868896 122.47488403 C94.39144115 124.35039661 95.18500057 126.1817814 96 128 C96.99 128.33 97.98 128.66 99 129 C99.17613831 128.32521606 99.35227661 127.65043213 99.53375244 126.9552002 C101.26713224 120.44149166 103.25007554 114.07631508 105.484375 107.71875 C105.81681213 106.76323746 106.14924927 105.80772491 106.49176025 104.82325745 C107.57436101 101.71427947 108.66214167 98.60714176 109.75 95.5 C110.51075109 93.31839458 111.27116294 91.13667084 112.03125 88.95483398 C113.97394213 83.38094232 115.92083774 77.80852918 117.86889648 72.23651123 C119.6285498 67.20148335 121.38464114 62.1652148 123.140625 57.12890625 C125.04713909 51.66142508 126.95385959 46.19401719 128.86254883 40.72729492 C133.59931514 27.15984683 138.30771972 13.58291661 143 0 C159.17 0 175.34 0 192 0 C188.62171685 11.26094384 188.62171685 11.26094384 186.63671875 16.59375 C186.30096832 17.49871719 186.30096832 17.49871719 185.95843506 18.42196655 C185.2048896 20.44927497 184.44635976 22.47467532 183.6875 24.5 C183.1269615 26.0027397 182.56649908 27.50550777 182.00610352 29.00830078 C175.5985833 46.16188546 169.08423868 63.27545981 162.58203125 80.39331055 C161.62237498 82.91975119 160.6627324 85.44619704 159.703125 87.97265625 C159.46478439 88.60015715 159.22644379 89.22765804 158.98088074 89.87417412 C154.28216968 102.24616425 149.60378735 114.62578517 144.93377686 127.00863647 C143.69439914 130.29421047 142.45400737 133.57940006 141.21337891 136.86450195 C137.61232805 146.40267874 134.01724239 155.94290437 130.45213318 165.49458313 C128.93427724 169.55951694 127.41165048 173.62265589 125.88858032 177.68563843 C125.18934167 179.5550275 124.49241262 181.42528268 123.79818726 183.29653931 C101.33880378 243.82935301 101.33880378 243.82935301 73.13671875 258.48828125 C52.10913974 267.92980348 24.17555355 268.46197344 2.5390625 260.39453125 C1.37117188 259.93433594 0.20328125 259.47414063 -1 259 C-0.23777117 254.56097833 0.53637111 250.12411069 1.3125 245.6875 C1.52583984 244.44419922 1.73917969 243.20089844 1.95898438 241.91992188 C3.26668195 234.48361179 4.84822754 227.23897027 7 220 C10.72582446 219.16257221 12.68138826 218.97579612 16.25 220.375 C27.88715864 224.11551528 41.50877581 224.22215434 53 220 C59.47402118 216.39168526 64.15533635 211.25575621 68 205 C68.54599854 204.19030762 69.09199707 203.38061523 69.65454102 202.54638672 C72.64577485 196.96686841 73.55392378 193.05564077 71.88134766 186.98779297 C69.81287737 180.7768616 67.23925069 174.77401623 64.6875 168.75 C63.75381161 166.45436051 62.8248703 164.15678526 61.90039062 161.85742188 C59.950855 157.01908905 57.98111485 152.18971407 55.99755859 147.36523438 C51.61721763 136.66311827 47.49913331 125.86059091 43.36529541 115.06149292 C41.08206447 109.10548459 38.77994008 103.15678361 36.48046875 97.20703125 C32.82888717 87.74929708 29.1863062 78.28813606 25.55078125 68.82421875 C25.11041534 67.67800552 24.67004944 66.5317923 24.21633911 65.35084534 C22.49352869 60.86626422 20.7708078 56.38164939 19.04943848 51.89651489 C15.17276951 41.79654607 11.29603585 31.69748557 7.30859375 21.640625 C7.03819778 20.95789017 6.76780182 20.27515533 6.48921204 19.57173157 C5.29808262 16.56756795 4.10033808 13.56631799 2.8918457 10.5690918 C2.49956787 9.58593994 2.10729004 8.60278809 1.703125 7.58984375 C1.36958008 6.76347412 1.03603516 5.93710449 0.69238281 5.08569336 C0 3 0 3 0 0 Z " fill="#000000" transform="translate(1156,357)"/>
<path d="M0 0 C1.36125 0.41765625 1.36125 0.41765625 2.75 0.84375 C14.42316395 4.97206408 23.35906626 13.73196867 29.1875 24.5 C35.72502731 38.2742554 37.15840516 52.97671446 37.11352539 68.02539062 C37.11367142 69.31403015 37.11381744 70.60266968 37.1139679 71.93035889 C37.11425331 75.44218401 37.10839809 78.95397457 37.10139394 82.4657917 C37.09511766 86.14398139 37.09455323 89.82217199 37.09336853 93.50036621 C37.09026778 100.45580336 37.08207139 107.41122468 37.07201904 114.36665487 C37.06081881 122.28929931 37.05533762 130.21194453 37.05032361 138.13459492 C37.03988767 154.42307399 37.02155788 170.71153127 37 187 C21.16 187 5.32 187 -11 187 C-11.01458252 183.2354541 -11.02916504 179.4709082 -11.04418945 175.59228516 C-11.09457909 163.13911978 -11.1610332 150.68608329 -11.23571491 138.23304176 C-11.28059341 130.68450954 -11.32002617 123.13602365 -11.34643555 115.58740234 C-11.36948024 109.0045257 -11.40294989 102.4217967 -11.44870156 95.8390373 C-11.47254705 92.35666522 -11.49133237 88.87443857 -11.49761391 85.39198685 C-11.5048391 81.49504924 -11.53534912 77.59847449 -11.56762695 73.70166016 C-11.56619186 72.55941986 -11.56475677 71.41717957 -11.5632782 70.24032593 C-11.6655569 61.47984722 -12.78957288 52.6480685 -18.35546875 45.53515625 C-23.44520178 40.78393278 -30.13145159 38.36795795 -37 38 C-37.73605469 37.94972656 -38.47210937 37.89945312 -39.23046875 37.84765625 C-50.9747002 37.3808744 -60.83605605 40.69614125 -69.6875 48.3125 C-79.66463818 59.90755248 -82.28627418 73.26505511 -82.31884766 88.23291016 C-82.33391609 89.8444397 -82.33391609 89.8444397 -82.34928894 91.48852539 C-82.37994052 95.00536613 -82.39710578 98.52213138 -82.4140625 102.0390625 C-82.43278865 104.49100384 -82.45236313 106.94293883 -82.4727478 109.39486694 C-82.52392203 115.82269538 -82.56362635 122.25054468 -82.60089111 128.6784668 C-82.64808935 136.40463864 -82.70962387 144.13070817 -82.76873779 151.85679626 C-82.85677056 163.57115588 -82.92666374 175.28549766 -83 187 C-98.84 187 -114.68 187 -131 187 C-131 125.62 -131 64.24 -131 1 C-115.82 1 -100.64 1 -85 1 C-85 9.91 -85 18.82 -85 28 C-81.45653629 26.81884543 -81.26473626 26.16607442 -79.4375 23.0625 C-70.84815692 9.89635368 -58.90129436 2.25557644 -43.9375 -2 C-29.75793947 -4.72275851 -13.80534507 -4.25909582 0 0 Z " fill="#000000" transform="translate(869,356)"/>
<path d="M0 0 C15.84 0 31.68 0 48 0 C48.01458252 3.80007568 48.02916504 7.60015137 48.04418945 11.51538086 C48.09455915 24.08031152 48.16100938 36.64511415 48.23571491 49.20992184 C48.28061078 56.82686412 48.32003962 64.4437603 48.34643555 72.06079102 C48.36946608 78.70262113 48.40292018 85.34430457 48.44870156 91.98601824 C48.47256597 95.50021645 48.49133899 99.01427 48.49761391 102.52854729 C48.50482816 106.45921552 48.53532197 110.38952251 48.56762695 114.32006836 C48.56619186 115.47525467 48.56475677 116.63044098 48.5632782 117.82063293 C48.66913038 126.94662116 50.10439621 134.75682963 56 142 C63.40697976 147.79676677 71.73888751 149.51427652 80.99609375 148.75390625 C92.43995101 147.10657393 100.86155854 143.11797999 108.46875 134.296875 C116.59920945 122.89440138 117.12267241 106.93174042 117.20532227 93.43139648 C117.21522186 92.41571091 117.22512146 91.40002533 117.23532104 90.3535614 C117.26668406 87.02609517 117.29159292 83.69861471 117.31640625 80.37109375 C117.33699758 78.0522476 117.3579946 75.73340501 117.37937927 73.41456604 C117.43437493 67.33359685 117.48388281 61.25259505 117.53222656 55.17156982 C117.59147613 47.86344617 117.6575794 40.55538164 117.72252655 33.24730682 C117.82025259 22.16490756 117.90930245 11.08246905 118 0 C133.51 0 149.02 0 165 0 C165 61.38 165 122.76 165 186 C150.15 186 135.3 186 120 186 C120 177.09 120 168.18 120 159 C116.05506811 159.56370034 116.05506811 159.56370034 114.5078125 161.8203125 C114.05148437 162.58085938 113.59515625 163.34140625 113.125 164.125 C107.87950596 172.37164734 102.37336692 177.83427672 94 183 C93.34773437 183.40347656 92.69546875 183.80695313 92.0234375 184.22265625 C81.583828 189.69201342 66.5856546 190.92950811 55 190 C53.83210937 189.9071875 52.66421875 189.814375 51.4609375 189.71875 C35.00878367 187.97636304 22.60836037 182.19524254 11.8515625 169.57421875 C1.48712685 155.16459197 -0.16391769 137.95022928 -0.11352539 120.79101562 C-0.11367142 119.48286896 -0.11381744 118.17472229 -0.1139679 116.82693481 C-0.11425335 113.26139261 -0.10839742 109.69588445 -0.10139394 106.13035011 C-0.09511839 102.39610596 -0.09455329 98.66186092 -0.09336853 94.9276123 C-0.09026756 87.86592737 -0.08207088 80.80425802 -0.07201904 73.74257994 C-0.06081948 65.69901878 -0.05533779 57.65545686 -0.05032361 49.61188984 C-0.03988718 33.07458268 -0.02155712 16.53729697 0 0 Z " fill="#000000" transform="translate(520,357)"/>
<path d="M0 0 C12.74840201 10.58250361 15.4466631 24.26809409 17.18359375 40.05078125 C18.57533065 57.99722862 17.32197514 79.18970095 6.09375 93.8984375 C-1.16760765 102.08045809 -11.12814227 106.47178853 -21.98046875 107.2890625 C-35.06542339 107.56966536 -44.81508934 103.93487116 -54.71875 95.4140625 C-67.47926499 82.5418581 -68.22249835 62.9631906 -68.18212891 46.03564453 C-67.96494068 30.28451663 -65.12871043 15.78746905 -54.19140625 3.73828125 C-39.62117993 -9.87927642 -16.25540798 -11.25027543 0 0 Z " fill="#FDBB58" transform="translate(414.81640625,399.94921875)"/>
<path d="M0 0 C2.89515324 3.35939065 4.23266716 6.96229454 5.5625 11.125 C5.78010986 11.79297607 5.99771973 12.46095215 6.22192383 13.14916992 C7.89126994 18.39216731 9.06820695 23.58843268 10 29 C10.57107865 31.69008101 11.14767361 34.37884017 11.73046875 37.06640625 C11.86388672 38.02353516 11.86388672 38.02353516 12 39 C11.505 39.495 11.505 39.495 11 40 C11.30300475 42.33746522 11.63858045 44.67085177 12 47 C12 49.48032176 11.84127521 51.77376223 11.5625 54.23046875 C11.42714844 55.43413086 11.42714844 55.43413086 11.2890625 56.66210938 C11.14597656 57.91217773 11.14597656 57.91217773 11 59.1875 C10.90460938 60.03248047 10.80921875 60.87746094 10.7109375 61.74804688 C10.47544006 63.83219921 10.23791469 65.91612222 10 68 C9.34 68 8.68 68 8 68 C8.02320313 68.60328125 8.04640625 69.2065625 8.0703125 69.828125 C8.09738281 71.02695312 8.09738281 71.02695312 8.125 72.25 C8.14820313 73.03890625 8.17140625 73.8278125 8.1953125 74.640625 C7.9828378 77.20731941 7.28654105 78.7916067 6 81 C5.34 81 4.68 81 4 81 C3.7654112 76.20559145 4.62311817 72.45504443 6 67.875 C8.63896624 58.27452488 8.44826252 48.8773092 8 39 C7.95617187 37.91332031 7.91234375 36.82664062 7.8671875 35.70703125 C7.4780284 29.84426477 6.21264687 24.37695682 4.62109375 18.7265625 C4.01127142 16.04948082 3.8856619 13.73417186 4 11 C3.34 11 2.68 11 2 11 C0.80712589 7.12315913 0 4.08378077 0 0 Z " fill="#FCC13B" transform="translate(500,397)"/>
<path d="M0 0 C2.87009853 0.3410983 4.54942165 0.56736037 6.66796875 2.6015625 C7.16941406 3.26929688 7.67085938 3.93703125 8.1875 4.625 C13.00814393 10.50280269 19.14595548 14.75417662 26 18 C25.67 18.66 25.34 19.32 25 20 C16.32878406 17.00849943 6.64618324 13.64618324 0 7 C-0.04092937 4.66702567 -0.04241723 2.33294775 0 0 Z " fill="#F8B554" transform="translate(348,523)"/>
<path d="M0 0 C0 0.66 0 1.32 0 2 C-17.38384846 7.69327946 -33.82594442 9.2075717 -52 9 C-51.34 8.67 -50.68 8.34 -50 8 C-49.67 7.01 -49.34 6.02 -49 5 C-40.75 5.33 -32.5 5.66 -24 6 C-24 5.34 -24 4.68 -24 4 C-22.83082031 3.79503906 -21.66164063 3.59007812 -20.45703125 3.37890625 C-18.90884878 3.10680145 -17.360672 2.83466433 -15.8125 2.5625 C-15.04357422 2.42779297 -14.27464844 2.29308594 -13.48242188 2.15429688 C-10.33845238 1.60106619 -7.20211957 1.04128744 -4.07421875 0.40234375 C-2 0 -2 0 0 0 Z " fill="#FCC433" transform="translate(429,557)"/>
<path d="M0 0 C4.62650832 0.28915677 7.22923337 2.47623164 10.73046875 5.234375 C14.69998219 8.32253348 18.86658376 11.13710105 23 14 C21.1875 14.625 21.1875 14.625 19 15 C18.01 14.34 17.02 13.68 16 13 C16.7734375 14.1446875 16.7734375 14.1446875 17.5625 15.3125 C18.036875 16.199375 18.51125 17.08625 19 18 C18.67 18.99 18.34 19.98 18 21 C17.34 19.35 16.68 17.7 16 16 C15.34 16 14.68 16 14 16 C14 15.34 14 14.68 14 14 C13.443125 13.773125 12.88625 13.54625 12.3125 13.3125 C7.23056069 10.42815607 3.59667698 5.52153678 0 1 C0 0.67 0 0.34 0 0 Z " fill="#FDCC2F" transform="translate(134,147)"/>
<path d="M0 0 C8.17560795 3.35182192 12.4852871 14.31163231 16.8034668 21.64526367 C17.16093994 22.25217041 17.51841309 22.85907715 17.88671875 23.484375 C18.40758057 24.37092773 18.40758057 24.37092773 18.93896484 25.27539062 C19.97783772 26.96397738 21.12335273 28.5854548 22.26953125 30.203125 C24 33 24 33 24 37 C24.66 37 25.32 37 26 37 C26.33 38.65 26.66 40.3 27 42 C26.01 42 25.02 42 24 42 C23.18395001 40.0848421 22.37229368 38.16781166 21.5625 36.25 C21.11003906 35.18265625 20.65757812 34.1153125 20.19140625 33.015625 C19 30 19 30 18.52734375 27.671875 C18.35332031 27.12015625 18.17929687 26.5684375 18 26 C17.01 25.67 16.02 25.34 15 25 C13.8125 21.4375 13.8125 21.4375 13 18 C12.34 18 11.68 18 11 18 C9 15 9 15 9 11 C8.01 10.67 7.02 10.34 6 10 C4.96567096 8.01753602 3.96761608 6.01586684 3 4 C1.41754725 2.24850835 1.41754725 2.24850835 0 1 C0 0.67 0 0.34 0 0 Z " fill="#FCC03E" transform="translate(473,355)"/>
<path d="M0 0 C0.66 0 1.32 0 2 0 C2 0.66 2 1.32 2 2 C3.32 2.66 4.64 3.32 6 4 C5.67 4.66 5.34 5.32 5 6 C4.34 5.67 3.68 5.34 3 5 C3 5.66 3 6.32 3 7 C3.66 7 4.32 7 5 7 C6.15625 8.73046875 6.15625 8.73046875 7.5 11.1875 C11.87029233 18.75188253 17.36454466 25.44188029 22.80078125 32.2578125 C24 34 24 34 24 36 C23.34 36 22.68 36 22 36 C18 31.64705882 18 31.64705882 18 28 C17.34 28 16.68 28 16 28 C13.06026678 24.54563722 10.56033213 20.74121139 8 17 C7.58105469 16.3905957 7.16210938 15.78119141 6.73046875 15.15332031 C5.45145551 13.27827144 4.19142338 11.39190177 2.9375 9.5 C2.53136475 8.90106934 2.12522949 8.30213867 1.70678711 7.68505859 C0.72301967 6.17338972 -0.14853785 4.58995389 -1 3 C-0.67 2.01 -0.34 1.02 0 0 Z " fill="#FDC836" transform="translate(156,393)"/>
<path d="M0 0 C2.94956528 1.36944102 5.52468811 2.87830409 8 5 C8 5.66 8 6.32 8 7 C8.66 7 9.32 7 10 7 C11.625 9 11.625 9 13 11 C12.01 11 11.02 11 10 11 C10.63808594 11.75925781 11.27617188 12.51851562 11.93359375 13.30078125 C12.75988281 14.29464844 13.58617188 15.28851563 14.4375 16.3125 C15.26121094 17.29863281 16.08492187 18.28476563 16.93359375 19.30078125 C19 22 19 22 20 25 C18.68 24.34 17.36 23.68 16 23 C16 22.01 16 21.02 16 20 C15.34 20 14.68 20 14 20 C12.4921875 18.5390625 12.4921875 18.5390625 10.875 16.625 C10.33617188 15.99851563 9.79734375 15.37203125 9.2421875 14.7265625 C8 13 8 13 8 11 C7.401875 10.938125 6.80375 10.87625 6.1875 10.8125 C3.04697458 9.64601913 2.41839124 7.97186737 1 5 C0.3125 2.1875 0.3125 2.1875 0 0 Z " fill="#FCBF3B" transform="translate(56,231)"/>
<path d="M0 0 C3.75563429 2.20919664 7.38776679 4.56384272 11 7 C9.68 7.33 8.36 7.66 7 8 C7.433125 8.54269531 7.86625 9.08539063 8.3125 9.64453125 C9.1478125 10.71767578 9.1478125 10.71767578 10 11.8125 C10.8353125 12.87404297 10.8353125 12.87404297 11.6875 13.95703125 C13 16 13 16 13 19 C11.66070495 17.71451591 10.32871357 16.42141845 9 15.125 C8.2575 14.40570313 7.515 13.68640625 6.75 12.9453125 C5 11 5 11 5 9 C4.360625 8.814375 3.72125 8.62875 3.0625 8.4375 C1 7 1 7 0.25 3.375 C0.1675 2.26125 0.085 1.1475 0 0 Z " fill="#FCAF32" transform="translate(0,99)"/>
<path d="M0 0 C4.5410664 1.38754807 6.12996688 3.30995742 9 7 C11.09045889 8.86892664 13.22558608 10.66740752 15.390625 12.44921875 C15.92171875 12.96097656 16.4528125 13.47273438 17 14 C17 14.66 17 15.32 17 16 C17.66 16 18.32 16 19 16 C20.70993434 17.6222454 22.37347684 19.29413425 24 21 C24.598125 21.598125 25.19625 22.19625 25.8125 22.8125 C26.204375 23.204375 26.59625 23.59625 27 24 C24.83125748 23.49396008 23.00032373 23.00016187 21 22 C21 21.34 21 20.68 21 20 C20.43152344 19.75894531 19.86304688 19.51789063 19.27734375 19.26953125 C16.55211092 17.75031912 14.73309661 15.92581019 12.5625 13.6875 C11.77746094 12.883125 10.99242187 12.07875 10.18359375 11.25 C9.46300781 10.5075 8.74242187 9.765 8 9 C7.04383925 8.06028427 6.08602751 7.12223801 5.125 6.1875 C3.21487365 4.22119346 1.57564022 2.23906768 0 0 Z " fill="#FCC940" transform="translate(223,481)"/>
<path d="M0 0 C1.27118864 0.79109602 2.54193623 1.58290078 3.8125 2.375 C4.52019531 2.81585938 5.22789062 3.25671875 5.95703125 3.7109375 C7.65432039 4.78188476 9.33014358 5.88676239 11 7 C10.67 6.67 10.34 6.34 10 6 C9.63837971 4.67405895 9.30271961 3.34061543 9 2 C9.66 1.67 10.32 1.34 11 1 C12.0076952 2.7664657 13.00591714 4.53833823 14 6.3125 C14.8353125 7.79169922 14.8353125 7.79169922 15.6875 9.30078125 C17 12 17 12 17 15 C16.195625 14.1028125 16.195625 14.1028125 15.375 13.1875 C12.76169929 10.7805125 10.17665737 9.55453446 7 8 C5.375 6.5 5.375 6.5 4 5 C3.278125 4.484375 2.55625 3.96875 1.8125 3.4375 C1.214375 2.963125 0.61625 2.48875 0 2 C0 1.34 0 0.68 0 0 Z " fill="#FBB43A" transform="translate(333,270)"/>
<path d="M0 0 C-1.55603771 3.81936528 -3.95604931 6.26044438 -7 9 C-7.66 9 -8.32 9 -9 9 C-9.33 9.99 -9.66 10.98 -10 12 C-11.5234375 13.421875 -11.5234375 13.421875 -13.375 14.75 C-13.98085938 15.19859375 -14.58671875 15.6471875 -15.2109375 16.109375 C-17 17 -17 17 -20 16 C-17.94766315 13.7522025 -16.99332739 12.9977758 -14 12 C-12.80873034 10.57709458 -11.62111474 9.15070786 -10.46484375 7.69921875 C-3.82758621 0 -3.82758621 0 0 0 Z " fill="#FCC536" transform="translate(477,524)"/>
<path d="M0 0 C0.33 0.66 0.66 1.32 1 2 C2.299375 2.433125 2.299375 2.433125 3.625 2.875 C7.48237078 4.16079026 10.52006093 5.91203656 14 8 C14 8.66 14 9.32 14 10 C16.64 10.66 19.28 11.32 22 12 C21.67 12.99 21.34 13.98 21 15 C13.74 11.04 6.48 7.08 -1 3 C-0.67 2.01 -0.34 1.02 0 0 Z " fill="#FCBB36" transform="translate(216,198)"/>
<path d="M0 0 C1.16209423 3.48628269 0.88616059 3.86370218 -0.65234375 7.01171875 C-1.01650391 7.76904297 -1.38066406 8.52636719 -1.75585938 9.30664062 C-2.14580078 10.09232422 -2.53574219 10.87800781 -2.9375 11.6875 C-3.32357422 12.48478516 -3.70964844 13.28207031 -4.10742188 14.10351562 C-5.06290602 16.07346443 -6.02732106 18.03849939 -7 20 C-7.66 20 -8.32 20 -9 20 C-8.71758359 18.53984709 -8.42373386 17.08190207 -8.125 15.625 C-7.96257812 14.81289063 -7.80015625 14.00078125 -7.6328125 13.1640625 C-7 11 -7 11 -5 9 C-4.505 7.845 -4.01 6.69 -3.5 5.5 C-2 2 -2 2 0 0 Z " fill="#FCC53E" transform="translate(504,479)"/>
<path d="M0 0 C4.3751418 1.63016101 6.96406541 4.92713234 10 8.3125 C10.52078125 8.88162109 11.0415625 9.45074219 11.578125 10.03710938 C20 19.29904514 20 19.29904514 20 22 C19.34 22 18.68 22 18 22 C16.58561594 20.42713316 15.24395599 18.78860004 13.9375 17.125 C10.01418032 12.20811234 5.91989522 7.523442 1.65234375 2.8984375 C0 1 0 1 0 0 Z " fill="#FDC23A" transform="translate(27,133)"/>
<path d="M0 0 C4.02144292 1.37878043 6.73061335 3.31742634 10 6 C11.31138904 6.70885894 12.63777017 7.39456452 14 8 C14 8.66 14 9.32 14 10 C16.97 10.495 16.97 10.495 20 11 C20 11.66 20 12.32 20 13 C15.99920724 12.39733975 12.97624107 11.1315928 9.4375 9.1875 C8.04337891 8.43533203 8.04337891 8.43533203 6.62109375 7.66796875 C4.00327077 6.0020814 2.02356736 4.34733814 0 2 C0 1.34 0 0.68 0 0 Z " fill="#FCBC3B" transform="translate(167,402)"/>
<path d="M0 0 C0.99 0 1.98 0 3 0 C3.226875 0.598125 3.45375 1.19625 3.6875 1.8125 C4.85824041 4.1701451 4.85824041 4.1701451 7.3125 5.3125 C10.84477291 7.5304388 12.95412976 10.38708022 15 14 C15 14.66 15 15.32 15 16 C15.66 16 16.32 16 17 16 C17 16.66 17 17.32 17 18 C13.612801 16.5611898 11.6405896 14.77880501 9.25 12 C8.63640625 11.29875 8.0228125 10.5975 7.390625 9.875 C6 8 6 8 6 6 C5.01 5.67 4.02 5.34 3 5 C1.3125 2.4375 1.3125 2.4375 0 0 Z " fill="#FDC63A" transform="translate(166,374)"/>
<path d="M0 0 C4.83505561 2.25387977 9.05895898 4.96738499 13.375 8.0625 C14.01566406 8.50916016 14.65632813 8.95582031 15.31640625 9.41601562 C16.91688848 10.55751095 18.46390537 11.77322854 20 13 C20 13.66 20 14.32 20 15 C16.30579944 13.68852634 13.59351751 12.09952054 10.5625 9.625 C7.92022593 7.49969259 5.30921 5.490825 2.4375 3.6875 C1.633125 3.130625 0.82875 2.57375 0 2 C0 1.34 0 0.68 0 0 Z " fill="#FDC236" transform="translate(395,281)"/>
<path d="M0 0 C0.33 0 0.66 0 1 0 C0.28030763 6.2373339 -0.62101247 9.62101247 -5 14 C-5.7734375 15.3303125 -5.7734375 15.3303125 -6.5625 16.6875 C-7.036875 17.450625 -7.51125 18.21375 -8 19 C-8.66 19 -9.32 19 -10 19 C-8.49382716 13.47736626 -8.49382716 13.47736626 -6.125 11.1875 C-3.00445089 7.97517003 -1.6532248 4.1154745 0 0 Z " fill="#FCBE39" transform="translate(493,498)"/>
<path d="M0 0 C4.43366817 2.1496573 7.10927872 5.16489197 10.21484375 8.87109375 C11.38390876 10.26527413 12.58395169 11.6341841 13.81640625 12.97265625 C14.37199219 13.57980469 14.92757813 14.18695313 15.5 14.8125 C16.0053125 15.35519531 16.510625 15.89789063 17.03125 16.45703125 C17.3509375 16.96621094 17.670625 17.47539062 18 18 C17.67 18.99 17.34 19.98 17 21 C16.43152344 20.27554687 15.86304688 19.55109375 15.27734375 18.8046875 C10.08407761 12.25406609 10.08407761 12.25406609 4 6.5625 C1.00030848 4.00026349 0.60945957 3.58819321 0 0 Z " fill="#FCBE3D" transform="translate(450,327)"/>
<path d="M0 0 C2.475 0.99 2.475 0.99 5 2 C5 2.66 5 3.32 5 4 C5.99 4.226875 6.98 4.45375 8 4.6875 C12.42356351 5.94491376 16.42423951 8.10224085 20 11 C20 11.66 20 12.32 20 13 C18.02 12.34 16.04 11.68 14 11 C14 10.34 14 9.68 14 9 C13.27425781 8.89558594 12.54851562 8.79117188 11.80078125 8.68359375 C8.74015809 7.93657973 6.78528522 6.82451352 4.1875 5.0625 C3.39730469 4.53785156 2.60710937 4.01320312 1.79296875 3.47265625 C1.20128906 2.98667969 0.60960938 2.50070313 0 2 C0 1.34 0 0.68 0 0 Z " fill="#FCC83A" transform="translate(119,181)"/>
<path d="M0 0 C1.32 0.33 2.64 0.66 4 1 C4 1.66 4 2.32 4 3 C4.86625 3.2475 5.7325 3.495 6.625 3.75 C10.20175612 5.07472449 12.90065405 6.79602066 16 9 C16.99 9.66 17.98 10.32 19 11 C18.01 11.495 18.01 11.495 17 12 C14.64018187 11.06421005 12.30368736 10.06652192 10 9 C10 8.34 10 7.68 10 7 C8.63875 6.5978125 8.63875 6.5978125 7.25 6.1875 C4.27008166 5.09868368 2.31409641 4.13608899 0 2 C0 1.34 0 0.68 0 0 Z " fill="#FCC83A" transform="translate(359,258)"/>
<path d="M0 0 C2.475 0.99 2.475 0.99 5 2 C5 2.66 5 3.32 5 4 C5.99 4.33 6.98 4.66 8 5 C8 5.66 8 6.32 8 7 C8.99 7.33 9.98 7.66 11 8 C10.67 8.66 10.34 9.32 10 10 C7.525 9.01 7.525 9.01 5 8 C5 7.34 5 6.68 5 6 C2.03 5.505 2.03 5.505 -1 5 C-1 4.34 -1 3.68 -1 3 C-0.34 3 0.32 3 1 3 C0.67 2.01 0.34 1.02 0 0 Z " fill="#FBAE3D" transform="translate(208,419)"/>
<path d="M0 0 C6.4 0.49230769 6.4 0.49230769 9.4375 3.0625 C10.2109375 4.0215625 10.2109375 4.0215625 11 5 C6.25 4.125 6.25 4.125 4 3 C4.515625 3.763125 5.03125 4.52625 5.5625 5.3125 C6.036875 6.199375 6.51125 7.08625 7 8 C6.67 8.99 6.34 9.98 6 11 C5.34 9.35 4.68 7.7 4 6 C3.34 6 2.68 6 2 6 C1.34 4.02 0.68 2.04 0 0 Z " fill="#FCB93E" transform="translate(146,157)"/>
<path d="M0 0 C1.9375 0.8125 1.9375 0.8125 4 2 C4.33 2.99 4.66 3.98 5 5 C6.32407669 5.68486725 7.65909241 6.34870203 9 7 C11.25 9 11.25 9 13 11 C13 11.66 13 12.32 13 13 C13.66 13 14.32 13 15 13 C14.67 13.99 14.34 14.98 14 16 C12.29295928 14.29295928 10.58640236 12.58548699 8.8828125 10.875 C7.33648016 9.33508397 5.76529116 7.82016711 4.1875 6.3125 C2.2284966 4.24155355 1.06593215 2.61637891 0 0 Z " fill="#FDC140" transform="translate(189,399)"/>
<path d="M0 0 C3.35620271 1.38877354 5.07298728 2.91677965 7 6 C7 6.66 7 7.32 7 8 C7.66 8 8.32 8 9 8 C10.6875 10.375 10.6875 10.375 12 13 C11.67 13.66 11.34 14.32 11 15 C9.62437146 13.71034824 8.29233607 12.37310707 7 11 C7 10.34 7 9.68 7 9 C6.34 9 5.68 9 5 9 C4.71125 8.360625 4.4225 7.72125 4.125 7.0625 C3.17176549 4.84793921 3.17176549 4.84793921 1 4 C0.375 1.9375 0.375 1.9375 0 0 Z " fill="#FDC330" transform="translate(139,340)"/>
<path d="M0 0 C3.14737182 0.69941596 6.02588876 1.76078698 9 3 C9 3.66 9 4.32 9 5 C6.03 4.505 6.03 4.505 3 4 C4.65 5.65 6.3 7.3 8 9 C4.06326356 7.68775452 1.77280706 6.08089673 -1 3 C-0.67 2.01 -0.34 1.02 0 0 Z " fill="#FCC842" transform="translate(312,234)"/>
<path d="M0 0 C0.66 0 1.32 0 2 0 C3.82779998 2.23529012 5.51881113 4.4633749 7.1875 6.8125 C7.90196289 7.77639648 7.90196289 7.77639648 8.63085938 8.75976562 C9.83985561 10.44816124 10.92915191 12.22077657 12 14 C11.67 14.99 11.34 15.98 11 17 C9.5345138 15.10934188 8.07765297 13.21298003 6.625 11.3125 C6.2125 10.78205078 5.8 10.25160156 5.375 9.70507812 C3.00906418 6.59501734 1.25144944 3.70621566 0 0 Z " fill="#FCC334" transform="translate(74,189)"/>
<path d="M0 0 C4.01072167 1.55105712 6.02984378 4.12970639 8.6875 7.4375 C9.47511719 8.40558594 10.26273437 9.37367188 11.07421875 10.37109375 C13 13 13 13 14 16 C13.34 16.33 12.68 16.66 12 17 C11.63648438 16.443125 11.27296875 15.88625 10.8984375 15.3125 C7.44106888 10.06439173 3.82898958 4.98311764 0 0 Z " fill="#FCC543" transform="translate(327,251)"/>
<path d="M0 0 C0.66 0 1.32 0 2 0 C3.60634015 1.73391951 5.1375287 3.538091 6.625 5.375 C7.44226563 6.37273437 8.25953125 7.37046875 9.1015625 8.3984375 C11 11 11 11 11 13 C7.38502261 11.52841629 5.59408489 9.58537669 3.25 6.5 C2.63640625 5.7059375 2.0228125 4.911875 1.390625 4.09375 C0 2 0 2 0 0 Z " fill="#FDC137" transform="translate(152,356)"/>
<path d="M0 0 C0.66 0 1.32 0 2 0 C2 0.66 2 1.32 2 2 C2.85851562 2.38285156 2.85851562 2.38285156 3.734375 2.7734375 C6.24173733 4.13087159 8.1330456 5.71974104 10.25 7.625 C10.95640625 8.25664062 11.6628125 8.88828125 12.390625 9.5390625 C12.92171875 10.02117187 13.4528125 10.50328125 14 11 C13.01 11.33 12.02 11.66 11 12 C9.2740862 10.2740862 7.5483833 8.54797434 5.82421875 6.8203125 C4.41316013 5.41227542 2.99023409 4.01612552 1.5625 2.625 C0 1 0 1 0 0 Z " fill="#FDBE42" transform="translate(435,313)"/>
<path d="M0 0 C2.82398199 0.36156944 3.87991153 0.87518755 5.88671875 2.9609375 C6.48097656 3.75757813 7.07523437 4.55421875 7.6875 5.375 C8.28949219 6.16648437 8.89148438 6.95796875 9.51171875 7.7734375 C11 10 11 10 12 13 C11.34 13 10.68 13 10 13 C8.4169795 11.26303438 6.90646276 9.45943503 5.4375 7.625 C4.63183594 6.62726563 3.82617188 5.62953125 2.99609375 4.6015625 C1 2 1 2 0 0 Z " fill="#FDC53C" transform="translate(76,258)"/>
<path d="M0 0 C5.75 1.875 5.75 1.875 8 3 C8 3.66 8 4.32 8 5 C10.475 5.99 10.475 5.99 13 7 C10 8 10 8 7.51953125 6.85546875 C6.62621094 6.30503906 5.73289062 5.75460937 4.8125 5.1875 C3.91144531 4.64480469 3.01039063 4.10210937 2.08203125 3.54296875 C1.39496094 3.03378906 0.70789063 2.52460938 0 2 C0 1.34 0 0.68 0 0 Z " fill="#FCBD3C" transform="translate(304,251)"/>
<path d="M0 0 C2.94956528 1.36944102 5.52468811 2.87830409 8 5 C8 5.66 8 6.32 8 7 C3.52599758 7.36275695 3.52599758 7.36275695 1.1875 5.75 C0 4 0 4 0 0 Z " fill="#FDDA37" transform="translate(56,231)"/>
<path d="M0 0 C4.09189762 1.36396587 4.61547327 3.34848983 6.6875 7.0625 C7.31011719 8.16722656 7.93273437 9.27195313 8.57421875 10.41015625 C9.04472656 11.26480469 9.51523438 12.11945313 10 13 C6.37114422 11.54845769 4.84567327 9.7599362 2.75 6.5 C1.96882813 5.30890625 1.96882813 5.30890625 1.171875 4.09375 C0 2 0 2 0 0 Z " fill="#FCBB3D" transform="translate(87,207)"/>
<path d="M0 0 C5.875 2.75 5.875 2.75 7 5 C9.01669827 6.13350534 9.01669827 6.13350534 11 7 C10.67 7.66 10.34 8.32 10 9 C7.36 7.68 4.72 6.36 2 5 C2 4.34 2 3.68 2 3 C1.34 3 0.68 3 0 3 C0 2.01 0 1.02 0 0 Z " fill="#FDBF37" transform="translate(13,108)"/>
<path d="M0 0 C0 0.66 0 1.32 0 2 C-5.17578125 5.22265625 -5.17578125 5.22265625 -7 6 C-7.99 5.67 -8.98 5.34 -10 5 C-4.5 0 -4.5 0 0 0 Z " fill="#FCBE36" transform="translate(449,547)"/>
<path d="M0 0 C3.68754757 0.49831724 5.60490662 1.10067643 8 4 C7.34 4 6.68 4 6 4 C6.33 4.99 6.66 5.98 7 7 C3.17053157 5.54744301 1.87949705 3.57104439 0 0 Z " fill="#FDE249" transform="translate(134,147)"/>
<path d="M0 0 C4.45549507 1.36140127 6.25434405 3.30756614 9 7 C9.66 7.33 10.32 7.66 11 8 C10.67 8.99 10.34 9.98 10 11 C5.58690458 7.84778899 2.99206986 4.44536093 0 0 Z " fill="#FDC630" transform="translate(223,481)"/>
<path d="M0 0 C3.85205198 1.47703954 5.25475324 3.48702291 7.3125 7 C7.84488281 7.886875 8.37726563 8.77375 8.92578125 9.6875 C9.45751953 10.8321875 9.45751953 10.8321875 10 12 C9.67 12.66 9.34 13.32 9 14 C7.6860942 12.04260958 6.37391698 10.08405875 5.0625 8.125 C4.33160156 7.03445313 3.60070312 5.94390625 2.84765625 4.8203125 C1 2 1 2 0 0 Z " fill="#FDD031" transform="translate(120,315)"/>
<path d="M0 0 C2.66666667 2.66666667 5.33333333 5.33333333 8 8 C7.67 8.99 7.34 9.98 7 11 C6.34 9.68 5.68 8.36 5 7 C4.34 7 3.68 7 3 7 C0.70351351 4.4385343 0 3.52032428 0 0 Z " fill="#FBAF38" transform="translate(193,445)"/>
<path d="M0 0 C3.59391114 1.33488128 6.75490696 2.96022723 10 5 C9.67 5.99 9.34 6.98 9 8 C8.67 7.34 8.34 6.68 8 6 C7.21625 5.690625 6.4325 5.38125 5.625 5.0625 C3.03444129 4.01394052 1.7578341 3.12790443 0 1 C0 0.67 0 0.34 0 0 Z " fill="#FDC73B" transform="translate(271,523)"/>
<path d="M0 0 C1.32 0 2.64 0 4 0 C4 0.66 4 1.32 4 2 C4.99 2 5.98 2 7 2 C8.6875 3.375 8.6875 3.375 10 5 C10 5.66 10 6.32 10 7 C5.56541027 5.6062718 3.12621626 3.39417765 0 0 Z " fill="#FDC43C" transform="translate(261,516)"/>
<path d="M0 0 C0.99 0.33 1.98 0.66 3 1 C4.1875 3.5625 4.1875 3.5625 5 6 C4.01 6 3.02 6 2 6 C2 5.34 2 4.68 2 4 C0.02 4 -1.96 4 -4 4 C-4 3.34 -4 2.68 -4 2 C-2.68 2 -1.36 2 0 2 C0 1.34 0 0.68 0 0 Z " fill="#FCBF3A" transform="translate(183,210)"/>
<path d="M0 0 C2.71224618 1.61268692 5.37352812 3.24901874 8 5 C7.67 5.66 7.34 6.32 7 7 C4.69 6.01 2.38 5.02 0 4 C0 2.68 0 1.36 0 0 Z " fill="#FCB944" transform="translate(0,99)"/>
<path d="M0 0 C1.65 0 3.3 0 5 0 C5 0.66 5 1.32 5 2 C5.99 2.33 6.98 2.66 8 3 C8 3.66 8 4.32 8 5 C5.03 4.505 5.03 4.505 2 4 C2 3.34 2 2.68 2 2 C1.34 2 0.68 2 0 2 C0 1.34 0 0.68 0 0 Z " fill="#FCA143" transform="translate(159,398)"/>
<path d="M0 0 C2.01822917 0.06510417 4.03645833 0.13020833 6.0546875 0.1953125 C6.0546875 1.1853125 6.0546875 2.1753125 6.0546875 3.1953125 C2.7546875 2.8653125 -0.5453125 2.5353125 -3.9453125 2.1953125 C-1.9453125 0.1953125 -1.9453125 0.1953125 0 0 Z " fill="#FEBA37" transform="translate(359.9453125,561.8046875)"/>
<path d="M0 0 C0.99 0 1.98 0 3 0 C4.38671875 1.4609375 4.38671875 1.4609375 5.6875 3.375 C6.12449219 4.00148438 6.56148437 4.62796875 7.01171875 5.2734375 C8 7 8 7 8 9 C7.34 9 6.68 9 6 9 C4.4921875 7.03125 4.4921875 7.03125 2.875 4.5 C2.33617187 3.6646875 1.79734375 2.829375 1.2421875 1.96875 C0.83226562 1.3190625 0.42234375 0.669375 0 0 Z " fill="#FCCC30" transform="translate(130,329)"/>
<path d="M0 0 C0.66 0 1.32 0 2 0 C3.76462683 3.08809695 4 4.23312136 4 8 C2.35 7.67 0.7 7.34 -1 7 C-0.01 6.67 0.98 6.34 2 6 C1.34 4.02 0.68 2.04 0 0 Z " fill="#FCB63D" transform="translate(123,273)"/>
<path d="M0 0 C0.33 0.66 0.66 1.32 1 2 C2.134375 2.309375 3.26875 2.61875 4.4375 2.9375 C8 4 8 4 10 7 C6.20696275 5.99806563 3.28463659 5.18975773 0 3 C0 2.01 0 1.02 0 0 Z " fill="#FDC339" transform="translate(109,270)"/>
<path d="M0 0 C0.33 0.66 0.66 1.32 1 2 C1.66 2 2.32 2 3 2 C4.7143618 3.95927063 6.38405168 5.95880212 8 8 C5.0280615 6.87548273 2.66559313 5.77706209 0 4 C0 2.68 0 1.36 0 0 Z " fill="#FCC238" transform="translate(70,242)"/>
<path d="M0 0 C0.66 0 1.32 0 2 0 C3.2890625 1.53125 3.2890625 1.53125 4.625 3.5 C5.07101563 4.1496875 5.51703125 4.799375 5.9765625 5.46875 C6.31429687 5.9740625 6.65203125 6.479375 7 7 C6.67 7.66 6.34 8.32 6 9 C4.99406757 7.8803014 3.9954151 6.7540588 3 5.625 C2.443125 4.99851563 1.88625 4.37203125 1.3125 3.7265625 C0 2 0 2 0 0 Z " fill="#FCBE3B" transform="translate(154,168)"/>
<path d="M0 0 C1.32 0 2.64 0 4 0 C4.625 1.875 4.625 1.875 5 4 C4.34 4.66 3.68 5.32 3 6 C1.5 4.6875 1.5 4.6875 0 3 C0 2.01 0 1.02 0 0 Z " fill="#FCBC39" transform="translate(140,151)"/>
<path d="M0 0 C-2.6875 1.625 -2.6875 1.625 -6 3 C-8.875 2.1875 -8.875 2.1875 -11 1 C-11 0.67 -11 0.34 -11 0 C-3.375 -1.125 -3.375 -1.125 0 0 Z " fill="#FBA63B" transform="translate(416,561)"/>
<path d="M0 0 C-2.97 1.32 -5.94 2.64 -9 4 C-8 1 -8 1 -6.1875 -0.25 C-4 -1 -4 -1 0 0 Z " fill="#FCCC36" transform="translate(439,554)"/>
<path d="M0 0 C-1.39332574 3.36720387 -2.9789286 4.9859524 -6 7 C-5.37162381 3.35541809 -4.14650034 0 0 0 Z " fill="#FDC74E" transform="translate(477,524)"/>
<path d="M0 0 C3.36720387 1.39332574 4.9859524 2.9789286 7 6 C6.67 6.66 6.34 7.32 6 8 C1.125 3.375 1.125 3.375 0 0 Z " fill="#FDBD36" transform="translate(100,288)"/>
<path d="M0 0 C2.9719385 1.12451727 5.33440687 2.22293791 8 4 C8 4.66 8 5.32 8 6 C5.0280615 4.87548273 2.66559313 3.77706209 0 2 C0 1.34 0 0.68 0 0 Z " fill="#FDC53C" transform="translate(86,256)"/>
<path d="" fill="#FFFF00" transform="translate(0,0)"/>
<path d="" fill="#FFFF00" transform="translate(0,0)"/>
<path d="" fill="#FFFF00" transform="translate(0,0)"/>
<path d="" fill="#FFFF00" transform="translate(0,0)"/>
</svg>
